<svg width="1440" height="2716" viewBox="0 0 1440 2716" fill="none" xmlns="http://www.w3.org/2000/svg">
<g style="mix-blend-mode:overlay">
<path d="M-304.457 1809.62C-283.69 1713.51 -255.077 1618.55 -200.802 1542.57C-146.551 1466.83 -63.2834 1411.91 31.4572 1413.34C144.613 1415.08 262.305 1494.71 370.246 1471.29C440.102 1456.11 490.818 1400.74 541.915 1351.73C593.15 1302.61 654.632 1255.89 728.311 1263.32C860.405 1276.66 963.725 1455.43 1094.77 1455.15C1181.21 1454.87 1237.49 1376.56 1305.9 1328.76C1392.49 1268.36 1510.31 1256.15 1618.12 1296.53C1725.94 1336.9 1821.53 1429.13 1871.63 1540.72" stroke="#1C2226" stroke-miterlimit="10"/>
<path d="M-306.613 1791.84C-285.557 1696.64 -256.042 1602.79 -201.39 1528.11C-168.492 1482.98 -125.091 1445.33 -75.2333 1422.86C-42.6952 1408.14 -7.27381 1400.03 29.7189 1400.28C142.061 1401.31 259.074 1477.59 366.355 1457.01C404.48 1449.67 437.115 1431.43 467.468 1408.16C493.171 1388.47 517.195 1365.33 541.257 1343.07C574.931 1311.79 612.633 1280.66 654.477 1263.83C677.637 1254.5 702.015 1249.47 727.637 1250.99C778.018 1253.84 824.179 1280.14 869.594 1311.43C935.138 1356.33 999.665 1411.49 1071.72 1422.55C1079.43 1423.82 1087.21 1424.33 1095.15 1424.49C1181.98 1425.51 1238.61 1353.8 1305.56 1311.8C1371.28 1270.8 1454.38 1258.32 1538.78 1274.89C1563.19 1279.71 1587.6 1287.06 1611.79 1296.66C1655.3 1314.11 1697.28 1339.24 1735.44 1369.81C1792.35 1415.12 1840.76 1472.22 1872.97 1534.79" stroke="#23292E" stroke-miterlimit="10"/>
<path d="M-309.018 1774.04C-287.424 1679.78 -257.145 1587.14 -202.205 1513.37C-169.106 1468.77 -125.892 1431.74 -76.3089 1409.49C-43.9084 1394.88 -8.84992 1386.61 28.0301 1386.72C139.445 1386.9 255.618 1460.19 362.263 1442.2C400.563 1435.64 433.638 1419.33 464.618 1397.39C490.973 1378.77 515.698 1356.21 540.122 1334.12C574.522 1303.16 612.5 1271.8 654.08 1253.81C677.039 1243.96 700.991 1238.12 726.6 1238.51C776.316 1239.14 822.073 1261.87 867.31 1289.85C932.574 1329.92 998.323 1380.4 1071.38 1391.56C1079.22 1392.72 1086.98 1393.48 1094.93 1393.64C1182.15 1395.71 1238.86 1330.83 1304.58 1294.9C1368.84 1259.7 1449.15 1252.49 1532.06 1272.58C1556.12 1278.38 1580.46 1286.48 1604.58 1296.83C1648.09 1315.41 1690.66 1340.98 1729.87 1371.15C1788.22 1415.97 1839.05 1470.41 1873.57 1528.78" stroke="#2A2F37" stroke-miterlimit="10"/>
<path d="M-311.311 1756.38C-289.427 1663.03 -258.247 1571.49 -202.905 1498.77C-169.631 1454.94 -126.716 1418.39 -77.4087 1396.36C-45.2831 1381.99 -10.4749 1373.68 26.1797 1373.53C136.919 1372.88 252.388 1443.07 358.285 1427.53C396.736 1421.99 430.275 1407.38 461.907 1386.51C488.913 1368.97 514.089 1346.95 539.239 1325.19C574.365 1294.56 612.755 1262.86 653.934 1243.82C676.83 1233.33 700.606 1226.71 725.701 1225.91C774.889 1224.22 819.855 1243.45 865.164 1268.16C930.399 1303.43 997.144 1348.96 1071.18 1360.46C1079.02 1361.62 1086.89 1362.52 1094.95 1362.82C1182.69 1366.08 1239.62 1307.92 1303.74 1277.88C1366.68 1248.37 1443.91 1246.67 1525.73 1270.19C1549.44 1276.96 1573.68 1286.06 1597.75 1296.91C1641.39 1316.77 1684.43 1342.64 1724.55 1372.52C1784.48 1416.74 1837.58 1468.62 1874.3 1522.67" stroke="#31363F" stroke-miterlimit="10"/>
<path d="M-313.604 1738.72C-291.182 1646.31 -259.237 1555.98 -203.745 1484.29C-170.407 1441.1 -127.542 1405.04 -78.5094 1383.24C-46.5214 1368.98 -11.9635 1360.65 24.2154 1360.19C134.278 1358.72 248.907 1425.92 354.168 1412.97C392.795 1408.21 426.661 1395.39 459.032 1375.99C486.577 1359.39 512.566 1338.08 538.33 1316.5C574.182 1286.2 612.734 1254.14 653.899 1233.96C676.482 1222.8 700.195 1215.55 724.913 1213.45C773.574 1209.43 817.975 1225.45 863.018 1246.47C927.973 1276.91 995.939 1317.76 1071.11 1329.25C1079.07 1330.54 1087.08 1331.33 1094.99 1331.74C1183 1336.16 1240.28 1284.61 1303.06 1260.51C1364.54 1236.78 1438.84 1240.48 1519.42 1267.54C1542.89 1275.43 1566.81 1285.25 1590.94 1296.74C1634.59 1317.74 1678.34 1344.19 1719.4 1373.52C1780.9 1417.14 1836.14 1466.58 1875.31 1516.32" stroke="#383C47" stroke-miterlimit="10"/>
<path d="M-316.01 1720.92C-293.161 1629.31 -260.453 1540.19 -204.559 1469.55C-171.158 1427 -128.367 1391.69 -79.5849 1369.87C-47.7344 1355.72 -13.4266 1347.37 22.3893 1346.75C131.638 1344.56 245.701 1408.54 350.076 1398.17C388.992 1394.32 423.185 1383.3 456.207 1364.97C484.404 1349.44 511.094 1328.71 537.221 1307.3C573.661 1277.43 612.763 1244.92 653.527 1223.69C676.047 1211.9 699.334 1203.84 723.651 1200.69C771.784 1194.35 815.643 1206.9 860.508 1224.62C925.296 1250.36 994.51 1286.28 1070.54 1297.98C1078.64 1299.17 1086.62 1300.21 1094.65 1300.75C1183.06 1306.23 1240.67 1261.53 1301.86 1243.33C1362.13 1225.43 1433.24 1234.49 1512.61 1264.85C1535.74 1273.71 1559.55 1284.53 1583.63 1296.52C1627.3 1318.66 1671.64 1345.54 1713.5 1374.45C1776.32 1417.44 1834.09 1464.36 1875.56 1509.91" stroke="#3F4350" stroke-miterlimit="10"/>
<path d="M-318.302 1703.25C-295.166 1612.56 -261.443 1524.68 -205.26 1454.95C-171.796 1413.04 -129.055 1378.23 -80.6851 1356.75C-49.1096 1342.82 -15.0521 1334.44 20.5384 1333.55C129.111 1330.54 242.333 1391.53 345.96 1383.61C385.164 1380.67 419.684 1371.46 453.358 1354.2C482.093 1339.61 509.46 1319.71 536.2 1298.48C573.366 1268.94 612.743 1236.2 653.356 1213.94C675.675 1201.63 698.786 1192.8 722.726 1188.35C770.195 1179.79 813.65 1188.77 858.337 1203.17C922.983 1223.98 993.281 1255.33 1070.32 1267.14C1078.41 1268.32 1086.53 1269.25 1094.68 1269.93C1183.59 1276.59 1241.43 1238.61 1301.27 1226.34C1360.08 1214.23 1428.51 1228.72 1506.39 1262.59C1529.17 1272.43 1552.91 1284 1576.92 1296.74C1620.71 1320.16 1665.52 1347.34 1708.43 1375.85C1772.83 1418.24 1832.87 1462.59 1876.66 1503.95" stroke="#464958" stroke-miterlimit="10"/>
<path d="M-320.57 1685.34C-296.895 1595.59 -262.407 1508.92 -206.074 1440.21C-172.434 1399.08 -129.993 1364.75 -81.7605 1343.37C-50.3225 1329.56 -16.5152 1321.16 18.5996 1319.96C126.246 1316.1 238.99 1374.27 341.731 1368.91C381.223 1366.89 415.957 1359.34 450.371 1343.54C479.757 1330.03 507.712 1310.57 534.928 1289.64C572.82 1260.42 612.497 1227.2 652.821 1204.04C675.078 1191.08 697.9 1181.34 721.552 1175.98C768.492 1165.09 811.157 1170.58 855.916 1181.71C920.395 1197.83 991.802 1224.36 1069.98 1236.15C1078.18 1237.47 1086.3 1238.4 1094.45 1239.08C1183.77 1246.79 1241.93 1215.66 1300.18 1209.31C1357.78 1203.01 1423.02 1222.87 1499.81 1260.17C1522.35 1271.12 1545.77 1283.42 1569.95 1296.93C1613.76 1321.49 1659.13 1349.36 1702.98 1377.33C1768.82 1419.23 1831.38 1461.06 1877.37 1498.08" stroke="#4D5060" stroke-miterlimit="10"/>
<path d="M-322.863 1667.68C-298.761 1578.72 -263.51 1493.27 -206.775 1425.62C-172.934 1385 -130.68 1351.29 -82.8606 1330.25C-51.6728 1316.41 -18.1406 1308.24 16.8864 1306.66C123.856 1301.97 235.872 1357.29 337.752 1354.24C377.42 1352.99 412.731 1347.27 447.659 1332.66C477.584 1320.09 506.353 1301.33 534.182 1280.59C572.8 1251.7 612.752 1218.26 652.95 1193.81C675.006 1180.33 697.652 1169.82 720.927 1163.15C767.34 1149.94 809.464 1151.96 854.045 1159.79C918.382 1170.97 991.01 1192.82 1070.05 1204.82C1078.26 1206.14 1086.49 1207.21 1094.75 1208.03C1184.44 1217.04 1243.21 1192.54 1299.61 1192.07C1356.14 1191.48 1418.07 1216.82 1493.64 1257.41C1515.83 1269.33 1539.15 1282.64 1563.28 1296.65C1607.1 1322.35 1653.06 1350.65 1697.96 1378.22C1765.38 1419.52 1830.22 1458.79 1878.51 1491.62" stroke="#545669" stroke-miterlimit="10"/>
<path d="M-325.156 1650.02C-300.653 1562.11 -264.362 1477.65 -207.476 1411.02C-173.572 1371.04 -131.368 1337.83 -83.8233 1317.02C-52.9106 1303.4 -19.6037 1294.95 15.173 1293.35C121.467 1287.83 232.641 1340.16 333.886 1339.71C373.843 1339.37 409.48 1335.45 445.172 1322.06C475.749 1310.56 505.082 1292.49 533.524 1271.94C572.867 1243.36 613.094 1209.7 653.029 1184.09C675.021 1169.98 697.379 1158.55 720.116 1150.94C766.001 1135.4 807.584 1133.96 851.986 1138.49C916.157 1144.98 989.894 1162.01 1069.93 1174.11C1078.28 1175.32 1086.62 1176.52 1094.74 1177.45C1184.84 1187.52 1244.06 1170.01 1298.88 1175.19C1354.32 1180.56 1413.06 1211.27 1487.28 1255.26C1509.12 1268.16 1532.37 1282.22 1556.43 1296.98C1600.26 1323.82 1646.81 1352.56 1692.62 1379.84C1761.62 1420.54 1828.73 1457.25 1879.33 1485.89" stroke="#5B5D71" stroke-miterlimit="10"/>
<path d="M-327.562 1632.22C-302.632 1545.11 -265.578 1461.86 -208.428 1396.39C-174.348 1357.19 -132.331 1324.59 -85.0365 1303.76C-54.2612 1290.26 -21.2046 1281.78 13.0965 1279.87C118.576 1273.65 229.023 1323.13 329.543 1324.88C369.652 1325.56 405.754 1323.33 441.96 1311.13C473.188 1300.7 503.109 1283.07 532.026 1262.82C572.096 1234.57 612.736 1200.57 652.269 1173.91C674.061 1159.27 696.13 1146.93 718.603 1138.16C763.961 1120.29 804.865 1115.5 849.227 1116.61C913.255 1118.16 988.214 1130.51 1069.14 1142.57C1077.6 1143.92 1085.94 1145.12 1094.31 1146.08C1184.92 1157.33 1244.61 1146.57 1297.7 1157.77C1351.93 1168.95 1407.48 1205.03 1480.61 1252.45C1502.22 1266.47 1525.25 1281.39 1549.26 1296.65C1593.22 1324.76 1640.36 1353.94 1687.11 1380.68C1757.54 1420.89 1827.06 1454.94 1879.98 1479.39" stroke="#626379" stroke-miterlimit="10"/>
<path d="M-329.854 1614.56C-304.386 1528.39 -266.567 1446.35 -209.129 1381.8C-174.986 1343.23 -133.018 1311.13 -86.1364 1290.64C-55.4987 1277.25 -22.8297 1268.86 11.2459 1266.68C116.049 1259.63 225.881 1306.39 325.427 1310.32C365.824 1311.92 402.253 1311.49 439.223 1300.49C470.99 1291.01 501.725 1274.09 531.118 1254.14C571.776 1226.33 612.716 1191.85 652.098 1164.17C673.826 1148.89 695.582 1135.88 717.679 1125.81C762.509 1105.62 802.872 1097.36 847.056 1095.17C911.055 1091.91 986.873 1099.42 1068.91 1111.72C1077.37 1113.07 1085.85 1114.16 1094.2 1115.37C1185.21 1127.67 1245.45 1124.04 1296.86 1140.75C1349.97 1158.14 1402.36 1199.34 1474.03 1250.03C1495.28 1265.03 1518.1 1280.8 1542.18 1296.71C1586.15 1325.96 1633.88 1355.57 1681.54 1382.03C1753.55 1421.63 1825.35 1453.13 1880.57 1473.38" stroke="#696A82" stroke-miterlimit="10"/>
<path d="M-332.26 1596.76C-306.504 1511.5 -267.783 1430.56 -209.943 1367.06C-175.737 1329.13 -133.957 1297.65 -87.2124 1277.26C-56.7121 1263.99 -24.2934 1255.58 9.41925 1253.23C113.296 1245.33 222.649 1289.27 321.448 1295.65C362.133 1298.16 398.889 1299.53 436.511 1289.61C468.929 1281.2 500.227 1264.97 530.259 1244.95C571.642 1217.47 612.995 1182.65 652.113 1153.81C673.778 1137.89 695.246 1123.97 716.941 1112.85C761.381 1090.22 801.066 1078.61 845.071 1073.12C908.928 1064.92 985.968 1067.75 1068.87 1080.26C1077.47 1081.49 1085.93 1082.83 1094.38 1084.18C1185.66 1097.64 1246.46 1101.14 1296.18 1123.38C1348.2 1146.72 1397.29 1193.15 1467.86 1247.27C1488.88 1263.38 1511.62 1279.91 1535.51 1296.43C1579.5 1326.81 1627.81 1356.87 1676.52 1382.92C1750.11 1421.92 1824.18 1450.87 1881.72 1466.93" stroke="#70708A" stroke-miterlimit="10"/>
<path d="M-334.415 1578.98C-308.12 1494.66 -268.635 1414.94 -210.644 1352.46C-176.263 1315.31 -134.645 1284.19 -88.3126 1264.14C-58.0874 1251.09 -25.9189 1242.65 7.45568 1239.9C110.656 1231.17 219.144 1272.37 317.219 1280.95C358.305 1284.52 395.163 1287.41 433.524 1278.96C466.594 1271.62 498.593 1255.97 529.1 1236.25C571.21 1209.09 612.837 1174.05 651.691 1144.04C673.156 1127.59 694.448 1112.9 715.741 1100.73C759.542 1075.63 798.798 1060.7 842.625 1051.9C906.315 1039.01 984.464 1037.03 1068.51 1049.52C1077.21 1050.89 1085.67 1052.23 1094.13 1053.58C1185.92 1068.23 1247.16 1078.72 1295.07 1106.59C1345.96 1136.14 1391.89 1187.69 1461.25 1245.1C1481.92 1262.18 1504.45 1279.58 1528.4 1296.73C1572.52 1328.39 1621.42 1358.89 1670.82 1384.37C1745.84 1422.89 1822.33 1449.17 1882.06 1460.9" stroke="#777792" stroke-miterlimit="10"/>
<path d="M-336.708 1561.32C-309.987 1477.8 -269.625 1399.43 -211.345 1337.86C-176.763 1301.24 -135.219 1270.86 -89.2751 1250.91C-59.1874 1237.97 -27.2691 1229.51 5.88 1226.48C108.267 1217.04 216.139 1255.52 313.377 1266.17C354.615 1270.76 391.937 1275.34 430.949 1267.96C464.558 1261.56 497.259 1246.49 528.354 1227.2C571.189 1200.37 613.116 1164.85 651.682 1133.93C673.084 1116.85 694.087 1101.24 714.979 1088.02C758.252 1060.6 796.967 1042.2 840.504 1029.96C904.052 1012.13 983.285 1005.58 1068.33 1018.17C1077.04 1019.54 1085.74 1020.91 1094.18 1022.5C1186.37 1038.21 1248.03 1055.94 1294.5 1089.35C1344.16 1124.97 1386.93 1181.64 1454.94 1242.46C1475.26 1260.51 1497.7 1278.91 1521.6 1296.56C1565.72 1329.36 1615.22 1360.29 1665.67 1385.38C1742.26 1423.29 1821.02 1447.02 1883.07 1454.55" stroke="#7E7E9B" stroke-miterlimit="10"/>
<path d="M-339.113 1543.52C-311.991 1461.05 -270.84 1383.64 -212.159 1323.13C-177.514 1287.14 -136.157 1257.38 -90.2377 1237.67C-60.2875 1224.85 -28.6195 1216.36 4.16667 1213.17C105.877 1202.9 213.134 1238.67 309.511 1251.63C351.037 1257.14 388.824 1263.41 428.35 1257.22C462.611 1251.9 495.874 1237.5 527.47 1218.27C571.032 1191.76 613.234 1156.02 651.536 1123.93C672.624 1106.19 693.451 1089.81 714.08 1075.43C756.825 1045.68 794.861 1023.92 838.358 1008.27C901.763 985.496 982.218 974.265 1068.12 987.072C1076.97 988.328 1085.65 989.946 1094.22 991.427C1186.79 1008.43 1248.9 1033.16 1293.68 1072.09C1342.09 1114.03 1381.84 1175.7 1448.64 1239.81C1468.72 1258.98 1490.83 1278.1 1514.9 1296.53C1559.16 1330.61 1609.13 1361.84 1660.49 1386.64C1738.66 1423.95 1819.7 1445.12 1884.19 1448.35" stroke="#8584A3" stroke-miterlimit="10"/>
<path d="M-341.406 1525.86C-313.857 1444.19 -271.829 1368.13 -212.86 1308.53C-178.152 1273.18 -136.845 1243.92 -91.3376 1224.55C-61.6624 1211.95 -30.2447 1203.44 2.20337 1199.83C103.1 1188.86 209.741 1221.91 305.282 1236.94C346.96 1243.47 385.21 1251.43 425.363 1246.56C460.275 1242.31 494.24 1228.5 526.312 1209.57C570.599 1183.38 613.214 1147.3 651.365 1114.19C672.39 1095.8 692.791 1078.62 713.156 1063.08C755.261 1030.86 792.869 1005.79 836.187 986.831C899.563 959.251 980.99 943.315 1068.03 956.109C1076.88 957.365 1085.7 958.871 1094.25 960.602C1187.21 978.658 1249.49 1010.6 1292.98 1054.96C1340.01 1103.08 1376.6 1169.88 1442.3 1237.41C1462.04 1257.56 1484.05 1277.68 1508.07 1296.61C1552.34 1331.83 1602.87 1363.74 1655.18 1388C1734.79 1424.82 1818.23 1443.33 1885.04 1442.37" stroke="#8C8BAC" stroke-miterlimit="10"/>
<path d="M-343.7 1508.19C-315.612 1427.47 -272.933 1352.48 -213.7 1294.04C-178.815 1259.47 -137.808 1230.68 -92.4389 1211.43C-63.0139 1198.8 -31.8464 1190.27 0.35143 1186.64C100.459 1174.7 206.46 1205.29 301.278 1222.52C343.356 1230.1 381.821 1239.72 422.625 1235.93C458.189 1232.76 492.742 1219.38 525.54 1200.77C570.415 1175.02 613.442 1138.61 651.33 1104.33C672.154 1085.42 692.855 1067.76 712.23 1050.73C753.019 1015.23 790.875 987.648 834.015 965.391C897.112 932.983 979.897 912.254 1067.81 925.26C1076.76 926.653 1085.58 928.159 1094.24 930.028C1187.72 949.271 1250.31 988.321 1292.11 1038.2C1337.78 1092.5 1371.45 1164.44 1435.83 1235.13C1455.08 1256.37 1477.02 1277.24 1501.1 1296.81C1545.39 1333.16 1596.51 1365.51 1649.86 1389.37C1731.04 1425.59 1816.77 1441.54 1885.88 1436.39" stroke="#9391B4" stroke-miterlimit="10"/>
<path d="M-346.105 1490.39C-317.729 1410.58 -274.035 1336.83 -214.514 1279.3C-179.566 1245.37 -138.496 1217.22 -93.6514 1198.17C-64.364 1185.66 -33.4467 1177.1 -1.72455 1173.16C97.707 1160.4 202.818 1188.5 296.936 1207.68C339.166 1216.29 378.095 1227.6 419.664 1225.03C455.766 1222.79 490.996 1210.24 524.293 1191.68C569.895 1166.25 613.222 1129.36 650.82 1094.17C671.582 1074.63 691.519 1055.76 711.081 1038.11C752.018 1001.11 788.544 969.098 831.619 943.676C894.573 906.326 978.443 881.03 1067.35 894.135C1076.45 895.416 1085.24 897.172 1093.9 899.04C1187.79 919.335 1250.54 965.603 1291.02 1021.16C1335.31 1081.65 1365.97 1158.59 1429.25 1232.71C1448.26 1255.06 1470.12 1276.68 1494.02 1296.86C1538.43 1334.49 1590.03 1367.15 1644.29 1390.72C1726.94 1426.2 1814.91 1439.84 1886.47 1430.38" stroke="#9A98BC" stroke-miterlimit="10"/>
<path d="M-348.26 1472.62C-319.345 1393.74 -275 1321.07 -215.077 1264.59C-180.066 1231.3 -139.045 1203.65 -94.4763 1184.82C-65.4639 1172.53 -34.7968 1163.95 -3.30008 1159.74C95.3177 1146.27 199.813 1171.66 293.095 1192.9C335.588 1202.67 374.869 1215.53 416.952 1214.14C453.706 1212.99 489.637 1201.01 523.41 1182.75C569.737 1157.65 613.339 1120.53 650.674 1084.18C671.235 1064.11 691.021 1044.21 710.182 1025.51C750.479 986.046 786.576 950.71 829.473 921.985C892.398 879.832 977.127 849.694 1067.29 862.923C1076.38 864.203 1085.43 865.984 1094.2 867.99C1188.35 889.448 1251.41 942.821 1290.6 1003.81C1333.38 1070.59 1361.12 1152.68 1423.19 1230.09C1441.86 1253.41 1463.51 1275.9 1487.47 1296.72C1531.89 1335.49 1584.19 1368.72 1639.39 1391.75C1723.48 1426.74 1813.86 1437.71 1887.73 1424.06" stroke="#A19EC5" stroke-miterlimit="10"/>
<path d="M-350.665 1454.82C-321.325 1376.74 -276.102 1305.42 -216.029 1249.97C-180.704 1217.34 -140.121 1190.28 -95.6894 1171.56C-66.8145 1159.39 -36.3976 1150.78 -5.12633 1146.3C92.8151 1132 196.42 1154.9 289.116 1178.23C331.76 1189.03 371.506 1203.58 414.353 1203.4C451.758 1203.32 488.39 1191.91 522.526 1173.82C569.467 1148.9 613.594 1111.58 650.527 1074.18C671.025 1053.47 690.385 1032.78 709.282 1012.92C749.052 971.122 784.47 932.434 827.326 900.294C889.972 853.312 976.06 818.381 1067.08 831.822C1076.29 833.24 1085.34 835.021 1094.11 837.027C1188.77 859.673 1251.89 920.127 1289.64 986.66C1330.94 1059.48 1355.78 1146.72 1416.64 1227.42C1435.06 1251.86 1456.39 1275.07 1480.41 1296.53C1524.85 1336.43 1577.73 1370.1 1633.85 1392.84C1719.51 1427.23 1812.17 1435.65 1888.35 1417.81" stroke="#A8A5CD" stroke-miterlimit="10"/>
<path d="M-352.958 1437.16C-323.329 1359.99 -277.092 1289.91 -216.73 1235.37C-181.343 1203.38 -140.809 1176.82 -96.7899 1158.44C-68.0525 1146.38 -38.0233 1137.86 -7.0902 1132.96C89.9247 1117.81 193.027 1138.14 284.886 1163.54C327.795 1175.49 367.892 1191.6 411.39 1192.49C449.447 1193.49 486.53 1182.63 521.529 1164.75C569.196 1140.16 613.485 1102.48 650.405 1063.94C670.84 1042.59 689.773 1021.09 708.27 1000.18C747.399 955.925 782.276 913.771 825.067 878.467C887.458 826.406 974.743 787.045 1066.77 800.586C1076.11 801.891 1085.02 803.784 1094.02 806.065C1189.08 829.761 1252.37 897.434 1288.82 969.397C1328.75 1048.4 1350.68 1140.78 1410.19 1224.88C1428.27 1250.3 1449.49 1274.51 1473.47 1296.47C1518.03 1337.65 1571.39 1371.62 1628.56 1393.96C1715.8 1427.75 1810.73 1433.61 1889.22 1411.58" stroke="#AFABD5" stroke-miterlimit="10"/>
<path d="M-355.251 1419.49C-325.083 1343.27 -278.195 1274.26 -217.431 1220.77C-181.981 1189.41 -141.521 1163.61 -97.7523 1145.2C-69.2899 1133.37 -39.3735 1124.71 -8.80331 1119.65C87.5353 1103.68 189.747 1121.51 280.908 1148.86C324.104 1161.74 364.528 1179.64 408.654 1181.86C447.362 1183.93 485.146 1173.65 520.621 1156.07C569.013 1131.8 613.715 1093.78 650.234 1054.19C670.468 1032.32 689.251 1009.8 707.346 987.836C745.835 941.113 780.284 895.633 822.896 857.026C885.145 800.023 973.652 755.983 1066.68 769.622C1076.02 770.927 1085.18 772.846 1094.04 775.24C1189.62 800.124 1253.1 874.764 1288.1 952.521C1326.4 1037.68 1345.42 1135.2 1403.97 1222.62C1421.7 1249.02 1442.85 1273.98 1466.75 1296.69C1511.33 1339.01 1565.39 1373.55 1623.24 1395.33C1711.92 1428.62 1809.26 1431.83 1890.07 1405.59" stroke="#B6B2DE" stroke-miterlimit="10"/>
<path d="M-357.656 1401.7C-327.199 1326.38 -279.297 1258.61 -218.382 1206.15C-182.869 1175.43 -142.459 1150.12 -99.1025 1132.06C-70.7776 1120.33 -41.1114 1111.65 -10.9041 1106.43C84.6207 1089.74 186.079 1104.98 276.654 1134.42C319.977 1148.57 360.89 1167.91 405.667 1171.21C444.914 1174.21 483.374 1164.76 519.35 1147.22C568.331 1123.4 613.445 1085.04 649.7 1044.28C669.871 1021.77 688.227 998.45 706.171 975.465C744.02 926.278 777.904 877.583 820.475 835.561C882.557 773.867 972.173 725.009 1066.2 738.748C1075.66 740.191 1084.82 742.109 1093.93 744.528C1189.77 770.575 1253.55 852.321 1287.12 935.621C1324.06 1026.96 1339.91 1129.61 1397.39 1220.2C1414.74 1247.82 1435.82 1273.54 1459.78 1296.88C1504.37 1340.34 1559.02 1375.32 1617.93 1396.7C1708.18 1429.39 1807.8 1430.04 1890.8 1399.48" stroke="#BDB8E6" stroke-miterlimit="10"/>
<path d="M-359.949 1384.03C-328.954 1309.66 -280.4 1242.96 -219.084 1191.55C-183.394 1161.61 -143.147 1136.66 -100.065 1118.82C-71.8781 1107.21 -42.7124 1098.48 -12.7305 1092.98C82.118 1075.47 182.799 1088.35 272.562 1119.61C316.036 1134.78 357.414 1155.81 402.704 1160.3C442.603 1164.38 481.651 1155.36 518.215 1138.27C567.922 1114.77 613.336 1075.93 649.303 1034.26C669.273 1011.23 687.454 987.129 705.021 962.843C742.342 911.33 775.685 859.171 817.965 813.708C879.905 747.073 970.606 693.648 1065.63 707.486C1075.09 708.929 1084.5 710.872 1093.47 713.403C1189.83 740.638 1253.56 829.328 1285.94 918.195C1321.39 1015.58 1334.45 1123.51 1390.58 1217.51C1407.58 1246.1 1428.45 1272.68 1452.48 1296.66C1497.19 1341.4 1552.32 1376.68 1612.14 1397.76C1703.96 1429.86 1805.86 1427.95 1891.17 1393.2" stroke="#C4BFEE" stroke-miterlimit="10"/>
<path d="M-362.217 1366.12C-330.795 1292.55 -281.364 1227.2 -219.76 1176.7C-184.007 1147.4 -143.947 1123.06 -101.003 1105.34C-73.0659 1093.7 -44.0377 1085.08 -14.4188 1079.43C79.616 1061.2 179.406 1071.59 268.721 1104.83C312.459 1121.16 354.075 1143.61 400.243 1149.45C440.793 1154.6 480.543 1146.16 517.72 1129.25C568.152 1106.07 613.842 1067.01 649.795 1024.21C669.702 1000.53 687.456 975.633 704.622 950.297C741.053 896.295 774.217 840.833 816.32 792.068C878.231 720.629 970.04 662.386 1066.07 676.323C1075.66 677.653 1085.05 679.847 1094.02 682.378C1190.77 710.664 1254.68 806.571 1285.62 900.982C1319.34 1004.39 1329.6 1117.59 1384.77 1214.91C1401.43 1244.48 1422.33 1271.95 1446.17 1296.55C1490.9 1342.42 1546.62 1378.13 1607.48 1398.82C1700.75 1430.42 1805.06 1425.85 1892.68 1386.9" stroke="#CBC5F7" stroke-miterlimit="10"/>
<path d="M-364.51 1348.46C-314.11 1233.81 -218.005 1139.86 -102.104 1092.21C13.7972 1044.57 148.143 1044.11 264.467 1090.38C308.468 1107.88 350.436 1131.88 397.255 1138.79C494.235 1153.33 587.378 1090.54 649.26 1014.3C711.004 938.168 752.017 846.844 813.785 770.464C875.417 694.197 968.448 631.274 1065.48 645.311C1178.56 661.822 1252.16 774.609 1284.53 883.944C1316.88 993.528 1324.12 1111.74 1377.94 1212.46C1424.95 1300.38 1506.82 1369.14 1601.67 1400.14C1696.51 1431.14 1803.09 1424.01 1893.02 1380.87" stroke="#D2CCFF" stroke-miterlimit="10"/>
<path d="M-345.829 1324.41C-294.965 1211.45 -199.195 1119.61 -84.2186 1073.65C30.7581 1027.68 163.691 1027.46 278.301 1074.44C322.979 1092.77 365.224 1119.06 412.007 1127.62C506.937 1144.98 598.433 1086.08 660.231 1014.5C721.892 943.037 764.235 856.141 826.757 782.362C890.015 707.519 982.219 642.746 1079.38 654.143C1192.12 667.714 1268.6 776.996 1302.77 886.004C1336.95 995.011 1343.15 1114.77 1393.24 1214.86C1436.59 1301.41 1514.51 1368.13 1604.63 1399.55C1694.76 1430.97 1797.04 1426.45 1884.78 1386.25" stroke="#CDC9FE" stroke-miterlimit="10"/>
<path d="M-326.898 1300.39C-275.594 1189.36 -180.135 1099.39 -66.0579 1054.85C48.0193 1010.31 179.626 1010.72 292.386 1058.53C337.853 1077.82 380.012 1106.25 426.759 1116.44C519.39 1136.61 609.489 1081.61 671.066 1014.82C732.893 948.044 776.454 865.438 839.616 794.123C904.615 720.842 995.903 653.831 1093.32 662.725C1205.74 673.107 1285.04 779.384 1321.06 887.564C1357.09 995.744 1362.37 1117.18 1408.48 1216.63C1447.93 1301.77 1522.24 1366.62 1607.65 1398.46C1693.19 1430.18 1791.03 1428.38 1876.59 1391.12" stroke="#C7C6FE" stroke-miterlimit="10"/>
<path d="M-308.217 1276.34C-256.336 1167.14 -161.213 1079.28 -48.1478 1036.03C64.9173 992.783 195.174 994.066 306.22 1042.59C352.476 1062.84 394.55 1093.42 441.512 1105.27C531.98 1128.13 620.293 1077.12 682.037 1015.02C743.781 952.913 788.559 874.596 852.612 805.77C919.214 734.165 1009.72 664.802 1107.25 671.307C1219.47 678.636 1301.48 781.771 1339.36 889.124C1377.23 996.476 1381.34 1119.56 1423.7 1218.64C1459.4 1302.02 1529.69 1365.34 1610.64 1397.62C1691.47 1429.76 1784.89 1430.42 1868.38 1396.24" stroke="#C2C3FD" stroke-miterlimit="10"/>
<path d="M-289.399 1252.18C-237.191 1144.78 -142.129 1058.81 -29.988 1017.24C82.1529 975.666 211.084 977.576 320.304 1026.68C367.349 1047.89 409.225 1080.47 456.513 1094.12C544.708 1119.54 631.598 1072.69 693.371 1015.38C755.145 958.082 801.14 884.055 865.97 817.58C934.337 747.287 1023.88 676.186 1121.68 679.938C1233.7 684.215 1318.31 784.07 1358.15 890.733C1397.85 997.509 1400.83 1121.74 1439.44 1220.45C1471.37 1302.33 1537.92 1363.88 1614.15 1396.57C1690.38 1429.27 1779.39 1432.4 1860.8 1401.31" stroke="#BDC0FD" stroke-miterlimit="10"/>
<path d="M-270.605 1228.26C-217.82 1122.69 -123.206 1038.7 -12.1026 998.669C99.0013 958.637 226.607 961.173 334.001 1010.85C381.835 1033.03 423.763 1067.63 471.015 1082.93C556.935 1110.9 642.403 1068.2 704.093 1015.56C765.783 962.926 813.359 893.351 878.716 829.203C948.823 760.471 1037.43 687.382 1135.36 688.495C1247.04 689.833 1334.63 786.319 1376.05 892.38C1417.61 998.329 1419.55 1124.1 1454.26 1222.55C1482.57 1302.8 1545.13 1362.57 1616.64 1395.68C1688.15 1428.8 1772.86 1434.54 1851.95 1406.49" stroke="#B8BDFC" stroke-miterlimit="10"/>
<path d="M-251.786 1204.1C-198.561 1100.47 -104.259 1018.34 6.05806 979.875C116.375 941.407 242.38 944.796 348.086 994.941C396.709 1018.08 438.438 1054.68 485.88 1071.89C569.55 1102.17 653.321 1063.85 715.178 1015.9C776.897 968.07 825.69 902.786 891.825 840.988C963.786 773.957 1051.23 698.604 1149.54 697.102C1261.02 695.387 1351.33 788.731 1394.71 894.102C1438.09 999.474 1439.04 1126.29 1469.86 1224.48C1494.57 1302.86 1553.08 1361.34 1620.02 1394.75C1686.95 1428.17 1767.11 1436.49 1844.12 1411.53" stroke="#B2BAFC" stroke-miterlimit="10"/>
<path d="M-233.106 1180.05C-179.304 1078.25 -85.4501 998.097 23.9676 961.056C133.385 924.015 257.903 928.393 361.92 979.003C411.332 1003.1 453 1041.6 500.518 1060.58C581.826 1093.02 664.262 1059.25 725.898 1016.08C787.672 972.801 837.908 912.082 904.683 852.748C978.384 787.279 1065.02 709.825 1163.34 705.796C1274.47 701.142 1367.52 791.093 1412.86 895.775C1458.2 1000.46 1457.92 1128.28 1485.08 1226.49C1506.18 1303 1560.67 1359.94 1623 1393.91C1685.22 1427.75 1760.94 1438.79 1835.91 1416.65" stroke="#ADB6FB" stroke-miterlimit="10"/>
<path d="M-214.174 1156.03C-160.046 1056.02 -66.3905 977.876 41.9903 942.375C150.371 906.873 273.538 912.129 375.867 963.203C426.068 988.265 467.425 1028.62 515.383 1049.55C594.466 1084.04 675.43 1054.92 736.983 1016.42C798.785 977.946 847.333 917.691 917.792 864.534C996.727 804.889 1078.93 721.185 1177.52 714.403C1288.31 706.809 1384.21 793.505 1431.26 897.472C1478.32 1001.44 1477.3 1130.33 1500.29 1228.5C1517.9 1303.27 1568.38 1358.68 1625.88 1392.94C1683.5 1427.32 1754.69 1440.7 1827.58 1421.64" stroke="#A8B3FB" stroke-miterlimit="10"/>
<path d="M-195.493 1131.98C-140.787 1033.8 -47.4432 957.518 60.0134 923.694C167.495 889.619 289.174 895.864 389.702 947.265C440.692 973.29 481.988 1015.54 530.023 1038.24C606.88 1074.79 686.122 1050.29 747.955 1016.62C809.674 982.815 859.714 926.624 930.789 876.182C1011.8 818.512 1092.73 732.407 1191.45 722.985C1302.04 712.339 1400.65 795.893 1449.55 899.032C1498.46 1002.17 1496.45 1132.1 1515.53 1230.27C1529.67 1303.05 1575.86 1357.15 1628.89 1391.84C1681.93 1426.54 1748.69 1442.63 1819.39 1426.51" stroke="#A3B0FA" stroke-miterlimit="10"/>
<path d="M-176.675 1107.82C-121.392 1011.47 -28.4964 937.159 78.0607 904.762C184.618 872.364 304.696 879.462 403.673 931.214C455.315 958.315 496.575 1002.2 544.774 1027.06C619.294 1065.53 697.177 1045.83 758.926 1016.83C820.675 987.821 875.426 940.183 943.784 887.829C1023.21 827.096 1106.41 743.49 1205.52 731.454C1315.77 717.868 1417.36 798.054 1467.98 900.479C1518.6 1002.9 1515.88 1133.65 1530.88 1232.17C1541.69 1302.85 1583.7 1355.78 1632.02 1390.89C1680.34 1426 1742.8 1444.7 1811.32 1431.52" stroke="#9DADFA" stroke-miterlimit="10"/>
<path d="M-157.881 1083.91C-102.159 989.493 -9.46157 917.188 96.0834 886.08C201.628 854.972 320.332 863.197 417.62 915.414C470.051 943.477 511.275 989.001 559.639 1016.03C632.071 1056.43 708.207 1041.62 770.01 1017.17C831.676 992.828 887.87 949.755 956.756 899.727C1038.03 840.693 1120.18 754.962 1219.31 740.148C1329.34 723.761 1433.55 800.416 1486.14 902.151C1538.72 1003.89 1535.04 1135.42 1545.98 1234.04C1553.58 1302.76 1591.18 1354.25 1634.78 1389.77C1678.39 1425.3 1736.43 1446.47 1802.88 1436.37" stroke="#98AAF9" stroke-miterlimit="10"/>
<path d="M-139.063 1059.75C-82.8758 967.021 9.48567 896.83 114.106 867.4C218.727 837.969 335.943 847.183 431.568 899.614C484.649 928.752 525.838 975.916 574.391 1004.86C644.648 1046.82 719.15 1037.02 780.845 1017.48C842.539 997.948 900.314 959.327 969.727 911.626C1053.11 854.317 1133.95 766.435 1233.22 748.981C1342.9 729.654 1449.97 803.054 1504.38 904.212C1558.79 1005.37 1554.55 1137.36 1561.15 1236.56C1565.69 1302.95 1598.7 1353.6 1637.72 1389.43C1676.75 1425.27 1730.35 1449.15 1794.61 1442" stroke="#93A7F9" stroke-miterlimit="10"/>
<path d="M-120.27 1035.83C-63.6432 945.047 28.4072 876.721 132.128 848.717C235.85 820.714 351.44 831.03 445.377 883.926C499.36 914.164 540.4 962.829 589.117 993.935C657.312 1037.58 730.179 1032.8 791.791 1017.93C853.54 1002.95 912.87 969.035 982.698 923.523C1067.93 867.913 1147.59 778.019 1247.26 757.7C1356.61 735.433 1466.52 805.578 1522.78 905.909C1579.04 1006.24 1574.23 1138.93 1576.5 1238.45C1577.96 1302.78 1606.43 1352.09 1640.85 1388.48C1675.27 1424.87 1724.46 1451.22 1786.53 1447.01" stroke="#8EA4F9" stroke-miterlimit="10"/>
<path d="M-101.451 1011.67C-44.2473 922.711 47.4921 856.25 150.176 829.786C252.861 803.322 367.076 814.765 459.236 867.738C513.871 899.051 555.15 949.129 603.644 982.488C669.776 1027.83 740.871 1028.18 802.65 1018C864.428 1007.82 925.338 978.357 995.581 935.033C1082.92 881.148 1161.27 789.103 1261.08 766.144C1370.2 741.075 1482.87 807.577 1540.96 907.331C1599.05 1007.08 1593.94 1140.25 1591.74 1240.22C1590.39 1302.24 1614.16 1350.59 1643.75 1387.25C1673.46 1424.05 1718.23 1452.88 1778.34 1451.88" stroke="#88A1F8" stroke-miterlimit="10"/>
<path d="M-82.77 987.624C-25.2395 900.464 66.3015 836.004 168.199 811.104C270.097 786.205 382.436 798.726 473.183 851.937C528.47 884.326 569.737 935.793 618.509 971.453C682.603 1018.23 751.926 1023.71 813.734 1018.34C875.542 1012.97 938.032 987.953 1008.69 946.818C1098.13 894.658 1175.29 800.599 1275.26 774.751C1384.04 746.742 1499.56 809.989 1559.36 909.028C1619.3 1007.95 1614.01 1141.73 1606.95 1242.23C1602.78 1302.21 1621.75 1349.19 1646.74 1386.41C1671.73 1423.63 1712.21 1455.06 1770.13 1457.01" stroke="#839EF8" stroke-miterlimit="10"/>
<path d="M-63.8384 963.6C-5.73086 878.266 85.3616 815.783 186.222 792.423C287.083 769.063 398.048 782.711 487.13 836.137C543.181 869.738 584.575 922.481 633.374 960.418C695.543 1008.78 763.094 1019.39 824.819 1018.68C886.543 1017.97 950.839 997.687 1021.8 958.603C1113.32 908.418 1189.2 811.958 1289.31 783.47C1397.86 752.66 1516.12 812.514 1577.77 910.725C1639.53 1009.07 1634.19 1143.35 1622.42 1244.27C1615.69 1301.97 1629.46 1347.93 1649.98 1385.59C1670.39 1423.12 1706.32 1457.13 1762.03 1462.27" stroke="#7E9BF7" stroke-miterlimit="10"/>
<path d="M-45.1576 939.551C13.3896 856.156 104.171 795.537 204.132 773.604C304.093 751.671 413.295 766.535 500.965 820.199C557.667 854.876 599.3 909.033 648.013 949.109C708.257 999.045 773.899 1014.9 835.54 1018.86C897.294 1022.96 963.033 1007.23 1034.54 970.227C1128.03 921.878 1202.75 823.156 1303.13 791.915C1411.33 758.165 1532.33 814.627 1596.06 912.286C1659.79 1009.94 1654.5 1144.86 1637.52 1246.14C1628.1 1301.68 1637.05 1346.54 1652.74 1384.48C1668.44 1422.42 1700.06 1459.03 1753.59 1467.12" stroke="#7898F7" stroke-miterlimit="10"/>
<path d="M-26.4764 915.503C32.6479 833.933 122.981 775.292 222.155 754.923C321.33 734.555 428.906 750.52 514.799 804.261C572.266 840.151 614.049 895.333 662.627 938.049C720.971 989.313 784.704 1010.41 846.374 1019.17C908.045 1027.94 975.59 1016.94 1047.52 982.125C1143.21 935.638 1216.52 834.628 1317.03 800.747C1425.01 764.195 1548.89 817.151 1614.33 914.096C1679.77 1011.04 1675.05 1146.64 1652.73 1248.16C1641.01 1301.45 1644.64 1345.14 1655.73 1383.64C1666.97 1422.02 1694.04 1461.22 1745.37 1472.24" stroke="#7395F6" stroke-miterlimit="10"/>
<path d="M-7.54601 891.478C52.0427 811.597 142.152 755.208 240.315 736.128C338.339 717.162 444.516 734.505 528.883 788.348C587.001 825.313 629.161 881.796 677.516 926.763C734.072 979.492 795.758 1005.95 857.595 1019.4C919.433 1032.86 988.533 1026.56 1060.76 993.797C1158.54 949.285 1230.54 846.124 1331.35 809.24C1439.1 769.886 1565.71 819.45 1632.87 915.68C1700.16 1011.8 1696.12 1148.22 1668.34 1250.08C1654.28 1301.37 1652.59 1343.91 1659.11 1382.71C1665.63 1421.51 1688.28 1463.17 1737.55 1477.28" stroke="#6E92F6" stroke-miterlimit="10"/>
<path d="M11.1356 867.43C71.3014 789.375 161.1 734.85 258.225 717.31C355.463 699.908 459.877 718.467 542.718 772.411C601.463 810.701 644.162 868.122 692.268 915.592C747.174 969.673 806.814 1001.48 868.568 1019.6C930.322 1037.73 1001.09 1036.27 1073.62 1005.56C1173.59 963.158 1244.2 857.459 1345.15 817.936C1452.67 775.78 1582.02 821.95 1651.02 917.353C1720.03 1012.76 1717.02 1150.17 1683.3 1252.07C1666.92 1301.36 1659.94 1342.49 1661.74 1381.71C1663.54 1420.92 1681.89 1465.19 1728.97 1482.24" stroke="#698EF5" stroke-miterlimit="10"/>
<path d="M29.9541 843.267C90.5595 767.151 180.047 714.49 276.248 698.628C372.449 682.766 475.238 702.426 556.665 756.609C616.061 795.975 659.137 854.696 707.02 904.418C760.276 959.853 817.756 996.881 879.539 1019.81C941.323 1042.73 1013.76 1046.12 1086.62 1017.2C1188.66 976.78 1258.11 868.817 1359.22 826.404C1466.51 781.446 1598.48 824.086 1669.45 918.799C1740.42 1013.51 1738.57 1152.05 1698.79 1253.86C1680.19 1301.29 1667.92 1341 1665 1380.64C1662.22 1420.16 1676.14 1467.15 1721.03 1487.14" stroke="#638BF5" stroke-miterlimit="10"/>
<path d="M48.748 819.356C109.793 745.179 198.969 694.382 294.271 679.947C389.573 665.512 490.574 686.638 570.5 740.672C630.523 781.363 674.274 840.909 721.635 893.359C773.24 950.146 828.674 992.53 890.374 1020.12C952.073 1047.71 1026.32 1055.83 1099.48 1028.97C1203.58 990.766 1271.77 880.152 1373.01 835.099C1480.08 787.339 1614.79 826.586 1687.47 920.584C1760.26 1014.72 1759.67 1154.52 1713.62 1255.96C1692.92 1301.66 1674.99 1339.81 1667.6 1379.89C1660.22 1419.96 1669.47 1469.4 1712.43 1492.35" stroke="#5E88F4" stroke-miterlimit="10"/>
<path d="M67.5663 795.195C129.076 722.705 217.916 674.023 312.181 661.128C406.446 648.232 505.934 670.598 584.334 724.734C644.871 766.613 689.274 827.234 736.387 882.186C786.455 940.463 839.591 988.179 901.208 1020.44C962.937 1052.83 1038.85 1065.79 1112.45 1040.86C1218.74 1004.78 1285.52 891.874 1386.92 843.931C1493.76 793.368 1631.34 829.111 1705.85 922.532C1780.35 1015.95 1781.37 1157.43 1729.06 1258.25C1706.25 1302.23 1682.92 1338.83 1670.7 1379.18C1658.61 1419.68 1663.56 1471.71 1704.33 1497.61" stroke="#5985F4" stroke-miterlimit="10"/>
<path d="M86.2463 771.146C148.195 700.596 236.725 653.778 330.203 642.447C423.568 630.978 521.294 654.559 598.28 708.934C659.444 752.138 704.523 813.585 751.138 871.014C799.556 930.644 850.532 983.578 912.291 1020.78C973.937 1057.84 1051.52 1075.63 1125.55 1052.65C1234.01 1018.92 1299.54 903.371 1401.1 852.538C1507.71 799.173 1647.92 831.385 1724.39 924.117C1800.86 1016.85 1803.36 1159.86 1744.43 1259.9C1719.52 1302.15 1690.67 1337.07 1673.86 1377.98C1657.04 1418.89 1657.58 1473.4 1696.39 1502.51" stroke="#5482F3" stroke-miterlimit="10"/>
<path d="M105.178 747.122C167.704 678.397 255.922 633.444 348.363 623.652C440.804 613.861 536.767 638.657 612.365 693.02C674.042 737.413 720.024 799.96 766.14 859.867C813.158 920.874 861.7 979.252 923.513 1021.01C985.326 1062.76 1064.44 1085.51 1138.8 1064.32C1249.31 1032.82 1313.7 914.754 1415.28 861.144C1521.78 805.115 1664.61 833.797 1742.93 925.701C1821.25 1017.6 1825.53 1163.07 1760.01 1262.07C1732.97 1302.85 1698.6 1336.09 1677.21 1377.3C1655.82 1418.52 1651.91 1475.74 1688.53 1507.8" stroke="#4E7FF3" stroke-miterlimit="10"/>
<path d="M123.859 723.074C186.712 656.15 274.845 613.336 366.273 604.834C457.815 596.47 551.99 622.731 626.087 676.945C688.391 722.664 735.048 786.035 780.529 848.532C826.01 911.03 872.392 974.627 934.122 1021.05C995.851 1067.47 1076.6 1095.3 1151.43 1075.81C1264.11 1046.67 1327.13 925.814 1428.99 869.452C1535.14 810.483 1680.82 835.91 1760.86 927.099C1840.89 1018.29 1847.09 1166.09 1774.88 1263.67C1745.7 1303.23 1705.85 1334.28 1679.75 1375.91C1653.64 1417.54 1645.43 1477.37 1679.87 1512.37" stroke="#497CF2" stroke-miterlimit="10"/>
</g>
</svg>
