<svg xmlns="http://www.w3.org/2000/svg" width="146" height="38" viewBox="0 0 146 38" fill="none">
  <path d="M24.6215 0L3.78117 6.70328e-07C1.71232 6.70328e-07 0.0351868 1.67575 0.0351868 3.74289C0.0351868 5.61441 1.40992 7.16512 3.20544 7.44185H12.0469C14.2081 7.44185 15.96 9.19234 15.96 11.3517C15.96 13.4816 14.2554 15.2138 12.1349 15.2605C10.1598 15.3523 8.58675 16.9819 8.58675 18.978C8.58675 21.033 10.254 22.699 12.3107 22.699H18.4661V22.7161C20.497 22.8079 22.1154 24.4822 22.1154 26.5341C22.1154 28.586 20.497 30.2603 18.4661 30.3521V30.36C16.4352 30.4519 14.8169 32.1261 14.8169 34.178C14.8169 36.2888 16.5294 38 18.642 38H24.4456C24.5427 38 24.6389 37.9964 24.7342 37.9893C29.6783 37.9189 34.4049 35.926 37.9062 32.4275C41.4715 28.8652 43.4745 24.0336 43.4745 18.9956C43.4745 13.9577 41.4715 9.12605 37.9062 5.56368C34.3782 2.03861 29.6064 0.0414156 24.6215 0Z" fill="url(#paint0_linear_1_3223)"/>
  <path d="M3.78116 37.956C5.86943 37.956 7.56231 36.2645 7.56231 34.1779C7.56231 32.0914 5.86943 30.3999 3.78116 30.3999C1.69288 30.3999 0 32.0914 0 34.1779C0 36.2645 1.69288 37.956 3.78116 37.956Z" fill="url(#paint1_linear_1_3223)"/>
  <path d="M92.5129 7.78027C94.0805 6.20007 95.4678 5.42384 97.5765 4.95255C98.0343 4.85552 98.7002 4.75849 99.0748 4.75849L99.7268 4.74463V9.54066L98.8805 9.707C96.7719 10.0951 95.1904 11.5367 94.6632 13.5466C94.6354 13.6566 94.6084 13.7575 94.5837 13.8501C94.4769 14.2493 94.4119 14.4926 94.5026 14.6402C94.6437 14.8699 95.1617 14.8684 96.4859 14.8645C96.6714 14.864 96.8727 14.8634 97.0909 14.8634H99.7268V19.4377L97.1326 19.4654L94.5245 19.507L94.4829 26.2574L94.4551 33.0218H89.5996V23.2773C89.5996 14.004 89.6135 13.4634 89.8771 12.4238C90.3349 10.5802 91.1534 9.15254 92.5129 7.78027Z" fill="white"/>
  <path fill-rule="evenodd" clip-rule="evenodd" d="M63.7266 15.598C63.8098 15.6118 63.8792 14.0039 63.907 11.0376L63.9347 6.43555L66.2653 7.19793C67.5416 7.61377 68.6376 8.00189 68.6931 8.05733C68.7486 8.11278 68.7763 12.1188 68.7624 16.9564L68.7208 25.7445L68.3324 26.8811C67.3474 29.792 64.8226 32.1623 61.8538 32.9662C60.7439 33.2712 58.344 33.2989 57.2757 33.0356C55.5555 32.6059 53.5301 31.4138 52.4758 30.2078C51.685 29.3069 50.9359 27.9623 50.5197 26.7148C50.0064 25.1623 49.9925 22.9029 50.4642 21.3781C51.0885 19.3682 52.1151 17.8435 53.6272 16.6791C55.4584 15.2653 57.1648 14.697 59.5648 14.697C60.9382 14.697 61.2434 14.7386 62.3393 15.1267C62.6043 15.2167 62.8591 15.3047 63.0768 15.3798C63.4289 15.5014 63.6837 15.5894 63.7266 15.598ZM63.3937 25.8831C64.448 23.7484 63.6434 21.1979 61.5486 20.0613C60.5497 19.5207 58.8295 19.4237 57.7474 19.8534C56.7486 20.2554 55.7081 21.295 55.3335 22.3069C54.0989 25.5504 56.7347 28.794 60.1752 28.2811C61.6041 28.0593 62.7278 27.2138 63.3937 25.8831Z" fill="white"/>
  <path fill-rule="evenodd" clip-rule="evenodd" d="M108.605 33.0217H113.738L113.766 28.6276L113.808 24.2197L116.721 24.1366C120.647 24.0118 122.09 23.6237 123.976 22.1821C125.794 20.7682 126.696 18.6475 126.696 15.7643C126.682 13.1306 126.071 11.5227 124.49 9.94253C123.449 8.88907 122.367 8.25144 121.022 7.84946C120.3 7.64154 119.398 7.59996 114.404 7.55837L108.605 7.50293V33.0217ZM119.718 12.798C120.591 13.2138 121.119 13.8237 121.355 14.6554C121.854 16.4851 121.119 18.19 119.537 18.897C118.871 19.188 118.552 19.2158 116.277 19.2712L113.738 19.3267V12.3405L116.346 12.396C118.802 12.4376 118.982 12.4514 119.718 12.798Z" fill="white"/>
  <path d="M100.42 15.7643L102.751 14.9742C104.027 14.5445 105.109 14.1841 105.179 14.1841C105.234 14.1702 105.276 18.4118 105.276 23.596V33.0217H100.42V15.7643Z" fill="white"/>
  <path fill-rule="evenodd" clip-rule="evenodd" d="M77.3222 14.8634C74.6725 15.3901 72.1337 17.303 70.8852 19.701C70.1638 21.0872 69.8725 22.2654 69.8725 23.804C69.8586 25.4812 70.0806 26.4792 70.8019 27.9624C73.0355 32.606 78.7095 34.4772 83.3568 32.1208C84.2031 31.6911 85.7152 30.5406 85.7152 30.3327C85.7152 30.2357 85.4517 29.9168 85.1326 29.6258C84.8587 29.3864 84.3128 28.8657 83.8034 28.3799C83.6935 28.275 83.5851 28.1717 83.4817 28.0733L82.4274 27.0337L81.7892 27.5188C80.9291 28.1703 80.291 28.3782 79.0563 28.3782C77.78 28.3782 76.7395 27.9485 75.8655 27.0337L75.269 26.4376L88.2817 26.299V24.3584C88.2678 22.7367 88.2262 22.2515 87.9488 21.3782C87.4493 19.7287 86.8667 18.7862 85.5765 17.4832C84.6193 16.5129 84.1753 16.1802 83.2181 15.7089C82.5661 15.3901 81.6089 15.0436 81.0678 14.9327C80.0274 14.7109 78.2378 14.6832 77.3222 14.8634ZM80.943 19.8674C81.595 20.1862 82.8019 21.2119 82.8019 21.4614C82.8019 21.5584 78.7233 21.6 75.6991 21.5169C75.3245 21.5169 75.3939 21.3367 75.9765 20.7683C77.2667 19.4654 79.2921 19.105 80.943 19.8674Z" fill="white"/>
  <path fill-rule="evenodd" clip-rule="evenodd" d="M127.597 27.9622C125.017 22.7503 127.889 16.5404 133.632 14.988C134.936 14.6414 137.419 14.6969 138.585 15.1127C140.554 15.8058 142.011 16.8038 143.079 18.1483C144.578 20.0612 145.091 21.683 145.091 24.5246V26.3681H138.64C135.061 26.3681 132.189 26.4236 132.189 26.4929C132.189 26.7285 133.465 27.782 134.09 28.0454C135.713 28.7384 137.267 28.5028 138.917 27.283C139.181 27.0889 139.292 27.1721 140.901 28.683C141.97 29.6899 142.446 30.0848 142.406 30.4166C142.372 30.6922 141.981 30.9243 141.276 31.4275C138.501 33.4097 134.922 33.7008 131.856 32.2038C129.914 31.2473 128.568 29.9166 127.597 27.9622ZM139.528 21.4335C139.681 21.281 138.335 20.1305 137.683 19.8394C136.92 19.5206 135.574 19.382 134.881 19.5622C133.812 19.8394 132.439 20.782 132.3 21.3503C132.272 21.4889 132.994 21.5305 135.852 21.5167C137.835 21.5167 139.486 21.4751 139.528 21.4335Z" fill="white"/>
  <defs>
    <linearGradient id="paint0_linear_1_3223" x1="-0.464408" y1="3" x2="39.0339" y2="40.4681" gradientUnits="userSpaceOnUse">
      <stop stop-color="#ED0689"/>
      <stop offset="1" stop-color="#FB6567"/>
    </linearGradient>
    <linearGradient id="paint1_linear_1_3223" x1="-0.0869741" y1="30.9964" x2="7.64427" y2="37.4172" gradientUnits="userSpaceOnUse">
      <stop stop-color="#ED0689"/>
      <stop offset="1" stop-color="#FB6567"/>
    </linearGradient>
  </defs>
</svg>