<svg width="1218" height="428" viewBox="0 0 1218 428" fill="none" xmlns="http://www.w3.org/2000/svg">
<g filter="url(#filter0_d_141_3415)">
<rect x="222" width="996" height="178" rx="10.5066" fill="#4B3874"/>
<rect x="222.563" y="0.562855" width="994.874" height="176.874" rx="9.94378" stroke="url(#paint0_linear_141_3415)" stroke-width="1.12571"/>
</g>
<path d="M278.81 47.16C275.674 47.16 273.466 44.984 273.466 41.64C273.466 38.296 275.674 36.12 278.81 36.12C281.578 36.12 283.674 37.672 283.674 40.104V40.296H282.442V40.104C282.442 38.28 281.178 37.224 278.826 37.224C276.154 37.224 274.666 38.728 274.666 41.64C274.666 44.552 276.154 46.056 278.826 46.056C281.178 46.056 282.442 45 282.442 43.176V42.984H283.674V43.176C283.674 45.608 281.594 47.16 278.81 47.16ZM286.33 47H285.194V39.096H286.218V41.256H286.298C286.538 39.992 287.434 38.936 289.082 38.936C290.906 38.936 291.706 40.28 291.706 41.752V42.536H290.57V41.928C290.57 40.584 290.01 39.928 288.634 39.928C287.034 39.928 286.33 40.936 286.33 42.712V47ZM294.062 49.72H293.071V48.68H294.271C295.071 48.68 295.375 48.44 295.679 47.784L296.062 46.984L292.143 39.096H293.391L295.711 43.8L296.591 45.736H296.687L297.535 43.784L299.727 39.096H300.975L296.687 48.104C296.111 49.32 295.375 49.72 294.062 49.72ZM303.205 49.72H302.069V39.096H303.093V41.32H303.221C303.573 39.896 304.757 38.936 306.629 38.936C309.093 38.936 310.501 40.648 310.501 43.048C310.501 45.448 309.109 47.16 306.597 47.16C304.853 47.16 303.589 46.2 303.221 44.68H303.205V49.72ZM303.205 43.192C303.205 45.064 304.437 46.12 306.293 46.12C308.133 46.12 309.349 45.336 309.349 43.048C309.349 40.76 308.117 39.992 306.325 39.992C304.357 39.992 303.205 41.096 303.205 43.048V43.192ZM316.746 47H315.034C313.466 47 312.458 46.344 312.458 44.488V40.072H311.05V39.096H312.458V37.208H313.61V39.096H316.746V40.072H313.61V44.552C313.61 45.656 314.154 45.96 315.306 45.96H316.746V47ZM321.863 47.16C319.287 47.16 317.575 45.448 317.575 43.048C317.575 40.648 319.287 38.936 321.863 38.936C324.455 38.936 326.167 40.648 326.167 43.048C326.167 45.448 324.455 47.16 321.863 47.16ZM321.863 46.136C324.039 46.136 325.047 44.968 325.047 43.048C325.047 41.144 324.039 39.96 321.863 39.96C319.687 39.96 318.695 41.144 318.695 43.048C318.695 44.968 319.687 46.136 321.863 46.136ZM331.455 47.16C328.927 47.16 327.279 45.448 327.279 43.048C327.279 40.648 328.927 38.936 331.455 38.936C333.663 38.936 335.391 40.248 335.391 42.152V42.28H334.271V42.184C334.271 40.776 333.247 39.976 331.439 39.976C329.327 39.976 328.415 41.112 328.415 43.048C328.415 44.984 329.327 46.12 331.439 46.12C333.247 46.12 334.271 45.32 334.271 43.912V43.816H335.391V43.944C335.391 45.848 333.663 47.16 331.455 47.16ZM340.225 47.16C337.969 47.16 336.865 45.592 336.865 43.72V39.096H338.001V43.544C338.001 45.192 338.801 46.136 340.625 46.136C342.561 46.136 343.569 44.968 343.569 42.936V39.096H344.705V47H343.681V44.536H343.601C343.329 45.88 342.193 47.16 340.225 47.16ZM347.752 47H346.616V39.096H347.64V41.256H347.72C347.96 39.992 348.856 38.936 350.504 38.936C352.328 38.936 353.128 40.28 353.128 41.752V42.536H351.992V41.928C351.992 40.584 351.432 39.928 350.056 39.928C348.456 39.928 347.752 40.936 347.752 42.712V47ZM355.58 47H354.444V39.096H355.468V41.256H355.548C355.788 39.992 356.684 38.936 358.332 38.936C360.156 38.936 360.956 40.28 360.956 41.752V42.536H359.82V41.928C359.82 40.584 359.26 39.928 357.884 39.928C356.284 39.928 355.58 40.936 355.58 42.712V47ZM366.033 47.16C363.489 47.16 361.873 45.56 361.873 43.048C361.873 40.648 363.473 38.936 366.016 38.936C368.337 38.936 369.985 40.28 369.985 42.632C369.985 42.92 369.953 43.16 369.905 43.368H362.945C363.009 45.144 363.921 46.216 366.016 46.216C367.873 46.216 368.737 45.528 368.737 44.376V44.264H369.873V44.376C369.873 46.024 368.241 47.16 366.033 47.16ZM366.001 39.88C363.953 39.88 363.025 40.936 362.945 42.664H368.913C368.913 42.584 368.913 42.504 368.913 42.424C368.913 40.76 367.857 39.88 366.001 39.88ZM372.627 47H371.491V39.096H372.515V41.576H372.595C372.867 40.232 373.987 38.936 375.955 38.936C378.179 38.936 379.283 40.52 379.283 42.392V47H378.147V42.552C378.147 40.92 377.363 39.976 375.555 39.976C373.635 39.976 372.627 41.144 372.627 43.176V47ZM384.908 47.16C382.38 47.16 380.732 45.448 380.732 43.048C380.732 40.648 382.38 38.936 384.908 38.936C387.116 38.936 388.844 40.248 388.844 42.152V42.28H387.724V42.184C387.724 40.776 386.7 39.976 384.892 39.976C382.78 39.976 381.868 41.112 381.868 43.048C381.868 44.984 382.78 46.12 384.892 46.12C386.7 46.12 387.724 45.32 387.724 43.912V43.816H388.844V43.944C388.844 45.848 387.116 47.16 384.908 47.16ZM391.502 38.088H390.366V36.28H391.502V38.088ZM391.502 47H390.366V39.096H391.502V47ZM397.173 47.16C394.629 47.16 393.013 45.56 393.013 43.048C393.013 40.648 394.613 38.936 397.157 38.936C399.477 38.936 401.125 40.28 401.125 42.632C401.125 42.92 401.093 43.16 401.045 43.368H394.085C394.149 45.144 395.061 46.216 397.157 46.216C399.013 46.216 399.877 45.528 399.877 44.376V44.264H401.013V44.376C401.013 46.024 399.381 47.16 397.173 47.16ZM397.141 39.88C395.093 39.88 394.165 40.936 394.085 42.664H400.053C400.053 42.584 400.053 42.504 400.053 42.424C400.053 40.76 398.997 39.88 397.141 39.88ZM406.104 47.16C403.672 47.16 402.264 46.184 402.264 44.36V44.328H403.4V44.424C403.4 45.752 404.184 46.216 406.12 46.216C407.896 46.216 408.504 45.8 408.504 44.888C408.504 44.056 408.008 43.784 406.696 43.576L404.584 43.272C403.144 43.08 402.232 42.52 402.232 41.208C402.232 39.816 403.56 38.936 405.736 38.936C408.008 38.936 409.48 39.896 409.48 41.752V41.784H408.344V41.704C408.344 40.52 407.72 39.88 405.704 39.88C404.04 39.88 403.352 40.28 403.352 41.224C403.352 42.04 403.768 42.328 405.08 42.52L407.016 42.792C408.712 43.032 409.624 43.608 409.624 44.888C409.624 46.376 408.152 47.16 406.104 47.16ZM328.951 69H321.015V58.28H322.151V67.96H328.951V69ZM331.369 60.088H330.233V58.28H331.369V60.088ZM331.369 69H330.233V61.096H331.369V69ZM336.752 69.16C334.32 69.16 332.912 68.184 332.912 66.36V66.328H334.048V66.424C334.048 67.752 334.832 68.216 336.768 68.216C338.544 68.216 339.152 67.8 339.152 66.888C339.152 66.056 338.656 65.784 337.344 65.576L335.232 65.272C333.792 65.08 332.88 64.52 332.88 63.208C332.88 61.816 334.208 60.936 336.384 60.936C338.656 60.936 340.128 61.896 340.128 63.752V63.784H338.992V63.704C338.992 62.52 338.368 61.88 336.352 61.88C334.688 61.88 334 62.28 334 63.224C334 64.04 334.416 64.328 335.728 64.52L337.664 64.792C339.36 65.032 340.272 65.608 340.272 66.888C340.272 68.376 338.8 69.16 336.752 69.16ZM346.613 69H344.901C343.333 69 342.325 68.344 342.325 66.488V62.072H340.917V61.096H342.325V59.208H343.477V61.096H346.613V62.072H343.477V66.552C343.477 67.656 344.021 67.96 345.173 67.96H346.613V69ZM351.618 69.16C349.074 69.16 347.458 67.56 347.458 65.048C347.458 62.648 349.058 60.936 351.602 60.936C353.922 60.936 355.57 62.28 355.57 64.632C355.57 64.92 355.538 65.16 355.49 65.368H348.53C348.594 67.144 349.506 68.216 351.602 68.216C353.458 68.216 354.322 67.528 354.322 66.376V66.264H355.458V66.376C355.458 68.024 353.826 69.16 351.618 69.16ZM351.586 61.88C349.538 61.88 348.61 62.936 348.53 64.664H354.498C354.498 64.584 354.498 64.504 354.498 64.424C354.498 62.76 353.442 61.88 351.586 61.88ZM360.485 69.16C357.957 69.16 356.549 67.448 356.549 65.048C356.549 62.648 357.957 60.936 360.389 60.936C362.261 60.936 363.429 61.944 363.781 63.304H363.861V58.28H364.997V69H363.957V66.664H363.893C363.509 68.248 362.229 69.16 360.485 69.16ZM357.701 65.048C357.701 67.336 358.917 68.12 360.773 68.12C362.629 68.12 363.861 67.048 363.861 65.176V65.032C363.861 63.08 362.693 61.992 360.741 61.992C358.933 61.992 357.701 62.76 357.701 65.048Z" fill="white"/>
<path d="M289.33 132V126.682L301.756 115.176C302.813 114.153 303.699 113.233 304.415 112.415C305.142 111.597 305.693 110.795 306.068 110.011C306.443 109.216 306.631 108.358 306.631 107.438C306.631 106.415 306.398 105.534 305.932 104.795C305.466 104.045 304.83 103.472 304.023 103.074C303.216 102.665 302.301 102.46 301.278 102.46C300.21 102.46 299.278 102.676 298.483 103.108C297.688 103.54 297.074 104.159 296.642 104.966C296.21 105.773 295.994 106.733 295.994 107.847H288.989C288.989 105.562 289.506 103.58 290.54 101.898C291.574 100.216 293.023 98.9148 294.886 97.9943C296.75 97.0739 298.898 96.6136 301.33 96.6136C303.83 96.6136 306.006 97.0568 307.858 97.9432C309.722 98.8182 311.17 100.034 312.205 101.591C313.239 103.148 313.756 104.932 313.756 106.943C313.756 108.261 313.494 109.562 312.972 110.847C312.46 112.131 311.545 113.557 310.227 115.125C308.909 116.682 307.051 118.551 304.653 120.733L299.557 125.727V125.966H314.216V132H289.33ZM319.768 97.0909H328.871L338.484 120.545H338.893L348.507 97.0909H357.609V132H350.45V109.278H350.161L341.126 131.83H336.251L327.217 109.193H326.928V132H319.768V97.0909ZM373.918 126.682V102.545H380.02V126.682H373.918ZM364.901 117.665V111.562H389.037V117.665H364.901Z" fill="url(#paint1_linear_141_3415)"/>
<path d="M497.648 52H492.992V41.28H497.648C500.864 41.28 502.912 43.36 502.912 46.64C502.912 49.92 500.864 52 497.648 52ZM497.648 42.32H494.144V50.96H497.648C500.368 50.96 501.712 49.552 501.712 46.64C501.712 43.728 500.368 42.32 497.648 42.32ZM512.093 52H503.949V41.28H512.093V42.32H505.085V46.096H511.853V47.12H505.085V50.96H512.093V52ZM513.779 52H512.323L516.755 46.64V46.544L512.323 41.28H513.779L517.683 45.856H517.763L521.619 41.28H523.091L518.643 46.56V46.64L523.091 52H521.619L517.747 47.328H517.651L513.779 52ZM527.101 52.16C524.669 52.16 523.261 51.184 523.261 49.36V49.328H524.397V49.424C524.397 50.752 525.181 51.216 527.117 51.216C528.893 51.216 529.501 50.8 529.501 49.888C529.501 49.056 529.005 48.784 527.693 48.576L525.581 48.272C524.141 48.08 523.229 47.52 523.229 46.208C523.229 44.816 524.557 43.936 526.733 43.936C529.005 43.936 530.477 44.896 530.477 46.752V46.784H529.341V46.704C529.341 45.52 528.717 44.88 526.701 44.88C525.037 44.88 524.349 45.28 524.349 46.224C524.349 47.04 524.765 47.328 526.077 47.52L528.013 47.792C529.709 48.032 530.621 48.608 530.621 49.888C530.621 51.376 529.149 52.16 527.101 52.16ZM534.459 52H533.211L538.059 41.28H539.643L544.507 52H543.227L541.787 48.848H535.899L534.459 52ZM538.203 43.76L536.363 47.824H541.323L539.467 43.76L538.875 42.368H538.779L538.203 43.76ZM546.2 52H545.064V41.28H546.2V52ZM551.503 52.16C548.927 52.16 547.215 50.448 547.215 48.048C547.215 45.648 548.927 43.936 551.503 43.936C554.095 43.936 555.807 45.648 555.807 48.048C555.807 50.448 554.095 52.16 551.503 52.16ZM551.503 51.136C553.679 51.136 554.687 49.968 554.687 48.048C554.687 46.144 553.679 44.96 551.503 44.96C549.327 44.96 548.335 46.144 548.335 48.048C548.335 49.968 549.327 51.136 551.503 51.136ZM557.975 52H556.839V44.096H557.863V46.576H557.943C558.215 45.232 559.335 43.936 561.303 43.936C563.527 43.936 564.631 45.52 564.631 47.392V52H563.495V47.552C563.495 45.92 562.711 44.976 560.903 44.976C558.983 44.976 557.975 46.144 557.975 48.176V52ZM569.391 51.36C567.039 51.36 565.599 49.808 565.599 47.648C565.599 45.488 567.087 43.936 569.519 43.936C571.183 43.936 572.495 44.72 572.815 46.128H572.895V44.096H573.919V51.248C573.919 53.856 572.271 54.88 569.887 54.88C567.743 54.88 566.111 53.808 566.111 51.968H567.247C567.247 53.36 568.175 53.904 569.935 53.904C571.983 53.904 572.783 53.28 572.783 51.312V49.248H572.703C572.383 50.464 571.215 51.36 569.391 51.36ZM566.735 47.648C566.735 49.664 567.983 50.352 569.695 50.352C571.647 50.352 572.783 49.376 572.783 47.696V47.424C572.783 45.872 571.599 44.944 569.775 44.944C567.999 44.944 566.735 45.632 566.735 47.648ZM578.835 52.16C576.403 52.16 574.995 51.184 574.995 49.36V49.328H576.131V49.424C576.131 50.752 576.915 51.216 578.851 51.216C580.627 51.216 581.235 50.8 581.235 49.888C581.235 49.056 580.739 48.784 579.427 48.576L577.315 48.272C575.875 48.08 574.963 47.52 574.963 46.208C574.963 44.816 576.291 43.936 578.467 43.936C580.739 43.936 582.211 44.896 582.211 46.752V46.784H581.075V46.704C581.075 45.52 580.451 44.88 578.435 44.88C576.771 44.88 576.083 45.28 576.083 46.224C576.083 47.04 576.499 47.328 577.811 47.52L579.747 47.792C581.443 48.032 582.355 48.608 582.355 49.888C582.355 51.376 580.883 52.16 578.835 52.16ZM584.504 43.088H583.368V41.28H584.504V43.088ZM584.504 52H583.368V44.096H584.504V52ZM589.342 52.16C586.814 52.16 585.406 50.448 585.406 48.048C585.406 45.648 586.814 43.936 589.246 43.936C591.118 43.936 592.286 44.944 592.638 46.304H592.718V41.28H593.854V52H592.814V49.664H592.75C592.366 51.248 591.086 52.16 589.342 52.16ZM586.558 48.048C586.558 50.336 587.774 51.12 589.63 51.12C591.486 51.12 592.718 50.048 592.718 48.176V48.032C592.718 46.08 591.55 44.992 589.598 44.992C587.79 44.992 586.558 45.76 586.558 48.048ZM599.043 52.16C596.499 52.16 594.883 50.56 594.883 48.048C594.883 45.648 596.483 43.936 599.027 43.936C601.347 43.936 602.995 45.28 602.995 47.632C602.995 47.92 602.963 48.16 602.915 48.368H595.955C596.019 50.144 596.931 51.216 599.027 51.216C600.883 51.216 601.747 50.528 601.747 49.376V49.264H602.883V49.376C602.883 51.024 601.251 52.16 599.043 52.16ZM599.011 44.88C596.963 44.88 596.035 45.936 595.955 47.664H601.923C601.923 47.584 601.923 47.504 601.923 47.424C601.923 45.76 600.867 44.88 599.011 44.88Z" fill="url(#paint2_linear_141_3415)"/>
<path d="M507.017 97.0909V132H499.636V104.097H499.432L491.438 109.108V102.562L500.08 97.0909H507.017ZM529.001 132.767C526.07 132.756 523.547 132.034 521.433 130.602C519.331 129.17 517.712 127.097 516.575 124.381C515.45 121.665 514.893 118.398 514.905 114.58C514.905 110.773 515.467 107.528 516.592 104.847C517.729 102.165 519.348 100.125 521.45 98.7273C523.564 97.3182 526.081 96.6136 529.001 96.6136C531.922 96.6136 534.433 97.3182 536.536 98.7273C538.649 100.136 540.274 102.182 541.411 104.864C542.547 107.534 543.109 110.773 543.098 114.58C543.098 118.409 542.53 121.682 541.393 124.398C540.268 127.114 538.655 129.187 536.553 130.619C534.45 132.051 531.933 132.767 529.001 132.767ZM529.001 126.648C531.001 126.648 532.598 125.642 533.791 123.631C534.984 121.619 535.575 118.602 535.564 114.58C535.564 111.932 535.291 109.727 534.746 107.966C534.212 106.205 533.45 104.881 532.462 103.994C531.484 103.108 530.331 102.665 529.001 102.665C527.013 102.665 525.422 103.659 524.229 105.648C523.036 107.636 522.433 110.614 522.422 114.58C522.422 117.261 522.689 119.5 523.223 121.295C523.768 123.08 524.536 124.42 525.524 125.318C526.513 126.205 527.672 126.648 529.001 126.648ZM562.048 132.767C559.116 132.756 556.594 132.034 554.48 130.602C552.378 129.17 550.759 127.097 549.622 124.381C548.497 121.665 547.94 118.398 547.952 114.58C547.952 110.773 548.514 107.528 549.639 104.847C550.776 102.165 552.395 100.125 554.497 98.7273C556.611 97.3182 559.128 96.6136 562.048 96.6136C564.969 96.6136 567.48 97.3182 569.582 98.7273C571.696 100.136 573.321 102.182 574.457 104.864C575.594 107.534 576.156 110.773 576.145 114.58C576.145 118.409 575.577 121.682 574.44 124.398C573.315 127.114 571.702 129.187 569.599 130.619C567.497 132.051 564.98 132.767 562.048 132.767ZM562.048 126.648C564.048 126.648 565.645 125.642 566.838 123.631C568.031 121.619 568.622 118.602 568.611 114.58C568.611 111.932 568.338 109.727 567.793 107.966C567.259 106.205 566.497 104.881 565.509 103.994C564.531 103.108 563.378 102.665 562.048 102.665C560.06 102.665 558.469 103.659 557.276 105.648C556.082 107.636 555.48 110.614 555.469 114.58C555.469 117.261 555.736 119.5 556.27 121.295C556.815 123.08 557.582 124.42 558.571 125.318C559.56 126.205 560.719 126.648 562.048 126.648ZM591.839 126.682V102.545H597.942V126.682H591.839ZM582.822 117.665V111.562H606.959V117.665H582.822Z" fill="url(#paint3_linear_141_3415)"/>
<path d="M699.154 52H691.01V41.28H699.154V42.32H692.146V46.096H698.914V47.12H692.146V50.96H699.154V52ZM701.401 52H700.265V44.096H701.289V46.576H701.369C701.641 45.232 702.761 43.936 704.729 43.936C706.953 43.936 708.057 45.52 708.057 47.392V52H706.921V47.552C706.921 45.92 706.137 44.976 704.329 44.976C702.409 44.976 701.401 46.144 701.401 48.176V52ZM710.577 43.088H709.441V41.28H710.577V43.088ZM708.129 54.72H707.521V53.792H708.193C708.993 53.792 709.441 53.472 709.441 52.608V44.096H710.577V52.368C710.577 54.096 709.521 54.72 708.129 54.72ZM715.895 52.16C713.319 52.16 711.607 50.448 711.607 48.048C711.607 45.648 713.319 43.936 715.895 43.936C718.487 43.936 720.199 45.648 720.199 48.048C720.199 50.448 718.487 52.16 715.895 52.16ZM715.895 51.136C718.071 51.136 719.079 49.968 719.079 48.048C719.079 46.144 718.071 44.96 715.895 44.96C713.719 44.96 712.727 46.144 712.727 48.048C712.727 49.968 713.719 51.136 715.895 51.136ZM722.271 54.72H721.279V53.68H722.479C723.279 53.68 723.583 53.44 723.887 52.784L724.271 51.984L720.351 44.096H721.599L723.919 48.8L724.799 50.736H724.895L725.743 48.784L727.935 44.096H729.183L724.895 53.104C724.319 54.32 723.583 54.72 722.271 54.72ZM736.415 52.16C733.263 52.16 731.791 50.656 731.791 48.608V48.512H732.943V48.72C732.943 50.256 733.903 51.088 736.415 51.088C738.559 51.088 739.535 50.496 739.535 49.28C739.535 48.08 738.815 47.648 737.247 47.328L734.975 46.896C733.231 46.56 731.839 45.824 731.839 44.048C731.839 42.592 733.087 41.12 736.159 41.12C739.183 41.12 740.527 42.72 740.527 44.672V44.768H739.375V44.576C739.375 43.024 738.415 42.192 736.079 42.192C733.951 42.192 732.991 42.8 732.991 43.968C732.991 45.184 733.695 45.552 735.279 45.888L737.535 46.336C739.455 46.704 740.687 47.52 740.687 49.184C740.687 50.72 739.391 52.16 736.415 52.16ZM745.442 52.16C742.898 52.16 741.282 50.56 741.282 48.048C741.282 45.648 742.882 43.936 745.426 43.936C747.746 43.936 749.394 45.28 749.394 47.632C749.394 47.92 749.362 48.16 749.314 48.368H742.354C742.418 50.144 743.33 51.216 745.426 51.216C747.282 51.216 748.146 50.528 748.146 49.376V49.264H749.282V49.376C749.282 51.024 747.65 52.16 745.442 52.16ZM745.41 44.88C743.362 44.88 742.434 45.936 742.354 47.664H748.322C748.322 47.584 748.322 47.504 748.322 47.424C748.322 45.76 747.266 44.88 745.41 44.88ZM752.612 52.16C751.06 52.16 750.004 51.424 750.004 50.144C750.004 48.848 751.076 48.288 752.548 48.128L756.308 47.712V47.104C756.308 45.568 755.636 44.96 753.908 44.96C752.212 44.96 751.316 45.568 751.316 46.96V47.024H750.18V46.96C750.18 45.296 751.556 43.936 753.988 43.936C756.388 43.936 757.412 45.312 757.412 47.056V52H756.388V49.872H756.308C755.844 51.328 754.452 52.16 752.612 52.16ZM751.14 50.064C751.14 50.864 751.668 51.28 752.868 51.28C754.788 51.28 756.308 50.432 756.308 48.528V48.464L752.9 48.848C751.716 48.96 751.14 49.248 751.14 50.064ZM759.936 52H758.8V44.096H759.824V46.48H759.888C760.112 45.152 761.024 43.936 762.992 43.936C764.752 43.936 765.744 45.024 766 46.56H766.08C766.304 45.2 767.248 43.936 769.232 43.936C771.296 43.936 772.368 45.392 772.368 47.392V52H771.232V47.552C771.232 45.792 770.48 44.976 768.816 44.976C766.912 44.976 766.144 46.08 766.144 48.176V52H765.008V47.552C765.008 45.792 764.272 44.976 762.608 44.976C760.688 44.976 759.936 46.08 759.936 48.176V52ZM774.878 52H773.742V41.28H774.878V52ZM780.068 52.16C777.524 52.16 775.908 50.56 775.908 48.048C775.908 45.648 777.508 43.936 780.052 43.936C782.372 43.936 784.02 45.28 784.02 47.632C784.02 47.92 783.988 48.16 783.94 48.368H776.98C777.044 50.144 777.956 51.216 780.052 51.216C781.908 51.216 782.772 50.528 782.772 49.376V49.264H783.908V49.376C783.908 51.024 782.276 52.16 780.068 52.16ZM780.036 44.88C777.988 44.88 777.06 45.936 776.98 47.664H782.948C782.948 47.584 782.948 47.504 782.948 47.424C782.948 45.76 781.892 44.88 780.036 44.88ZM788.519 52.16C786.087 52.16 784.679 51.184 784.679 49.36V49.328H785.815V49.424C785.815 50.752 786.599 51.216 788.535 51.216C790.311 51.216 790.919 50.8 790.919 49.888C790.919 49.056 790.423 48.784 789.111 48.576L786.999 48.272C785.559 48.08 784.647 47.52 784.647 46.208C784.647 44.816 785.975 43.936 788.151 43.936C790.423 43.936 791.895 44.896 791.895 46.752V46.784H790.759V46.704C790.759 45.52 790.135 44.88 788.119 44.88C786.455 44.88 785.767 45.28 785.767 46.224C785.767 47.04 786.183 47.328 787.495 47.52L789.431 47.792C791.127 48.032 792.039 48.608 792.039 49.888C792.039 51.376 790.567 52.16 788.519 52.16ZM796.524 52.16C794.092 52.16 792.684 51.184 792.684 49.36V49.328H793.82V49.424C793.82 50.752 794.604 51.216 796.54 51.216C798.316 51.216 798.924 50.8 798.924 49.888C798.924 49.056 798.428 48.784 797.116 48.576L795.004 48.272C793.564 48.08 792.652 47.52 792.652 46.208C792.652 44.816 793.98 43.936 796.156 43.936C798.428 43.936 799.9 44.896 799.9 46.752V46.784H798.764V46.704C798.764 45.52 798.14 44.88 796.124 44.88C794.46 44.88 793.772 45.28 793.772 46.224C793.772 47.04 794.188 47.328 795.5 47.52L797.436 47.792C799.132 48.032 800.044 48.608 800.044 49.888C800.044 51.376 798.572 52.16 796.524 52.16ZM808.281 52H807.145V42.32H802.729V41.28H812.681V42.32H808.281V52ZM814.466 52H813.33V44.096H814.354V46.256H814.434C814.674 44.992 815.57 43.936 817.218 43.936C819.042 43.936 819.842 45.28 819.842 46.752V47.536H818.706V46.928C818.706 45.584 818.146 44.928 816.77 44.928C815.17 44.928 814.466 45.936 814.466 47.712V52ZM822.87 52.16C821.318 52.16 820.262 51.424 820.262 50.144C820.262 48.848 821.334 48.288 822.806 48.128L826.566 47.712V47.104C826.566 45.568 825.894 44.96 824.166 44.96C822.47 44.96 821.574 45.568 821.574 46.96V47.024H820.438V46.96C820.438 45.296 821.814 43.936 824.246 43.936C826.646 43.936 827.67 45.312 827.67 47.056V52H826.646V49.872H826.566C826.102 51.328 824.71 52.16 822.87 52.16ZM821.398 50.064C821.398 50.864 821.926 51.28 823.126 51.28C825.046 51.28 826.566 50.432 826.566 48.528V48.464L823.158 48.848C821.974 48.96 821.398 49.248 821.398 50.064ZM830.194 52H829.058V44.096H830.082V46.576H830.162C830.434 45.232 831.554 43.936 833.522 43.936C835.746 43.936 836.85 45.52 836.85 47.392V52H835.714V47.552C835.714 45.92 834.93 44.976 833.122 44.976C831.202 44.976 830.194 46.144 830.194 48.176V52ZM841.69 52.16C839.258 52.16 837.85 51.184 837.85 49.36V49.328H838.986V49.424C838.986 50.752 839.77 51.216 841.706 51.216C843.482 51.216 844.09 50.8 844.09 49.888C844.09 49.056 843.594 48.784 842.282 48.576L840.17 48.272C838.73 48.08 837.818 47.52 837.818 46.208C837.818 44.816 839.146 43.936 841.322 43.936C843.594 43.936 845.066 44.896 845.066 46.752V46.784H843.93V46.704C843.93 45.52 843.306 44.88 841.29 44.88C839.626 44.88 838.938 45.28 838.938 46.224C838.938 47.04 839.354 47.328 840.666 47.52L842.602 47.792C844.298 48.032 845.21 48.608 845.21 49.888C845.21 51.376 843.738 52.16 841.69 52.16ZM848.415 52.16C846.863 52.16 845.807 51.424 845.807 50.144C845.807 48.848 846.879 48.288 848.351 48.128L852.111 47.712V47.104C852.111 45.568 851.439 44.96 849.711 44.96C848.015 44.96 847.119 45.568 847.119 46.96V47.024H845.983V46.96C845.983 45.296 847.359 43.936 849.791 43.936C852.191 43.936 853.215 45.312 853.215 47.056V52H852.191V49.872H852.111C851.647 51.328 850.255 52.16 848.415 52.16ZM846.943 50.064C846.943 50.864 847.471 51.28 848.671 51.28C850.591 51.28 852.111 50.432 852.111 48.528V48.464L848.703 48.848C847.519 48.96 846.943 49.248 846.943 50.064ZM858.378 52.16C855.85 52.16 854.202 50.448 854.202 48.048C854.202 45.648 855.85 43.936 858.378 43.936C860.586 43.936 862.314 45.248 862.314 47.152V47.28H861.194V47.184C861.194 45.776 860.17 44.976 858.362 44.976C856.25 44.976 855.338 46.112 855.338 48.048C855.338 49.984 856.25 51.12 858.362 51.12C860.17 51.12 861.194 50.32 861.194 48.912V48.816H862.314V48.944C862.314 50.848 860.586 52.16 858.378 52.16ZM868.205 52H866.493C864.925 52 863.917 51.344 863.917 49.488V45.072H862.509V44.096H863.917V42.208H865.069V44.096H868.205V45.072H865.069V49.552C865.069 50.656 865.613 50.96 866.765 50.96H868.205V52ZM870.106 43.088H868.97V41.28H870.106V43.088ZM870.106 52H868.97V44.096H870.106V52ZM875.409 52.16C872.833 52.16 871.121 50.448 871.121 48.048C871.121 45.648 872.833 43.936 875.409 43.936C878.001 43.936 879.713 45.648 879.713 48.048C879.713 50.448 878.001 52.16 875.409 52.16ZM875.409 51.136C877.585 51.136 878.593 49.968 878.593 48.048C878.593 46.144 877.585 44.96 875.409 44.96C873.233 44.96 872.241 46.144 872.241 48.048C872.241 49.968 873.233 51.136 875.409 51.136ZM881.881 52H880.745V44.096H881.769V46.576H881.849C882.121 45.232 883.241 43.936 885.209 43.936C887.433 43.936 888.537 45.52 888.537 47.392V52H887.401V47.552C887.401 45.92 886.617 44.976 884.809 44.976C882.889 44.976 881.881 46.144 881.881 48.176V52ZM893.377 52.16C890.945 52.16 889.537 51.184 889.537 49.36V49.328H890.673V49.424C890.673 50.752 891.457 51.216 893.393 51.216C895.169 51.216 895.777 50.8 895.777 49.888C895.777 49.056 895.281 48.784 893.969 48.576L891.857 48.272C890.417 48.08 889.505 47.52 889.505 46.208C889.505 44.816 890.833 43.936 893.009 43.936C895.281 43.936 896.753 44.896 896.753 46.752V46.784H895.617V46.704C895.617 45.52 894.993 44.88 892.977 44.88C891.313 44.88 890.625 45.28 890.625 46.224C890.625 47.04 891.041 47.328 892.353 47.52L894.289 47.792C895.985 48.032 896.897 48.608 896.897 49.888C896.897 51.376 895.425 52.16 893.377 52.16ZM735.93 68H734.522L731.994 60.096H733.162L734.842 65.328L735.242 67.008H735.338L735.882 65.232L737.962 60.096H739.418L741.482 65.232L742.026 66.992H742.122L742.506 65.328L744.202 60.096H745.37L742.81 68H741.386L739.338 62.832L738.714 61.072H738.634L738.01 62.832L735.93 68ZM747.138 59.088H746.002V57.28H747.138V59.088ZM747.138 68H746.002V60.096H747.138V68ZM753.417 68H751.705C750.137 68 749.129 67.344 749.129 65.488V61.072H747.721V60.096H749.129V58.208H750.281V60.096H753.417V61.072H750.281V65.552C750.281 66.656 750.825 66.96 751.977 66.96H753.417V68ZM755.318 68H754.182V57.28H755.318V62.512H755.398C755.654 61.184 756.678 59.936 758.694 59.936C760.902 59.936 762.006 61.408 762.006 63.408V68H760.87V63.552C760.87 61.744 760.022 60.976 758.246 60.976C756.134 60.976 755.318 62.32 755.318 64.288V68ZM770.439 68.16C767.383 68.16 765.463 66.096 765.463 62.64C765.463 59.2 767.383 57.12 770.439 57.12C773.479 57.12 775.399 59.2 775.399 62.64C775.399 66.096 773.479 68.16 770.439 68.16ZM770.439 67.072C772.919 67.072 774.199 65.632 774.199 62.64C774.199 59.648 772.919 58.208 770.439 58.208C767.943 58.208 766.663 59.648 766.663 62.64C766.663 65.632 767.943 67.072 770.439 67.072ZM778.558 62.432C776.782 62.432 775.886 61.168 775.886 59.76C775.886 58.368 776.782 57.104 778.558 57.104C780.35 57.104 781.246 58.368 781.246 59.76C781.246 61.168 780.35 62.432 778.558 62.432ZM777.854 68H776.718L785.822 57.28H786.958L777.854 68ZM778.558 61.6C779.838 61.6 780.35 60.928 780.35 59.76C780.35 58.608 779.838 57.936 778.558 57.936C777.294 57.936 776.782 58.608 776.782 59.76C776.782 60.928 777.294 61.6 778.558 61.6ZM785.118 68.16C783.326 68.16 782.43 66.912 782.43 65.504C782.43 64.112 783.326 62.848 785.118 62.848C786.894 62.848 787.79 64.112 787.79 65.504C787.79 66.912 786.894 68.16 785.118 68.16ZM785.118 67.328C786.382 67.328 786.894 66.656 786.894 65.504C786.894 64.352 786.382 63.68 785.118 63.68C783.838 63.68 783.326 64.352 783.326 65.504C783.326 66.656 783.838 67.328 785.118 67.328ZM795.926 68.16C792.87 68.16 790.726 65.984 790.726 62.64C790.726 59.296 792.95 57.12 796.15 57.12C798.934 57.12 801.014 58.64 801.014 61.024V61.168H799.782V61.024C799.782 59.248 798.502 58.224 796.134 58.224C793.43 58.224 791.926 59.728 791.926 62.64C791.926 65.552 793.414 67.056 796.086 67.056C798.63 67.056 799.878 66.096 799.878 64.016V63.616H795.622V62.72H801.03V68H800.006V65.664H799.926C799.382 67.392 797.83 68.16 795.926 68.16ZM804.448 68.16C802.896 68.16 801.84 67.424 801.84 66.144C801.84 64.848 802.912 64.288 804.384 64.128L808.144 63.712V63.104C808.144 61.568 807.472 60.96 805.744 60.96C804.048 60.96 803.152 61.568 803.152 62.96V63.024H802.016V62.96C802.016 61.296 803.392 59.936 805.824 59.936C808.224 59.936 809.248 61.312 809.248 63.056V68H808.224V65.872H808.144C807.68 67.328 806.288 68.16 804.448 68.16ZM802.976 66.064C802.976 66.864 803.504 67.28 804.704 67.28C806.624 67.28 808.144 66.432 808.144 64.528V64.464L804.736 64.848C803.552 64.96 802.976 65.248 802.976 66.064ZM814.107 68.16C811.675 68.16 810.267 67.184 810.267 65.36V65.328H811.403V65.424C811.403 66.752 812.187 67.216 814.123 67.216C815.899 67.216 816.507 66.8 816.507 65.888C816.507 65.056 816.011 64.784 814.699 64.576L812.587 64.272C811.147 64.08 810.235 63.52 810.235 62.208C810.235 60.816 811.563 59.936 813.739 59.936C816.011 59.936 817.483 60.896 817.483 62.752V62.784H816.347V62.704C816.347 61.52 815.723 60.88 813.707 60.88C812.043 60.88 811.355 61.28 811.355 62.224C811.355 63.04 811.771 63.328 813.083 63.52L815.019 63.792C816.715 64.032 817.627 64.608 817.627 65.888C817.627 67.376 816.155 68.16 814.107 68.16ZM822.233 68H821.097V57.28H829.129V58.32H822.233V62.416H828.889V63.44H822.233V68ZM833.924 68.16C831.38 68.16 829.764 66.56 829.764 64.048C829.764 61.648 831.364 59.936 833.908 59.936C836.228 59.936 837.876 61.28 837.876 63.632C837.876 63.92 837.844 64.16 837.796 64.368H830.836C830.9 66.144 831.812 67.216 833.908 67.216C835.764 67.216 836.628 66.528 836.628 65.376V65.264H837.764V65.376C837.764 67.024 836.132 68.16 833.924 68.16ZM833.892 60.88C831.844 60.88 830.916 61.936 830.836 63.664H836.804C836.804 63.584 836.804 63.504 836.804 63.424C836.804 61.76 835.748 60.88 833.892 60.88ZM842.663 68.16C840.119 68.16 838.503 66.56 838.503 64.048C838.503 61.648 840.103 59.936 842.647 59.936C844.967 59.936 846.615 61.28 846.615 63.632C846.615 63.92 846.583 64.16 846.535 64.368H839.575C839.639 66.144 840.551 67.216 842.647 67.216C844.503 67.216 845.367 66.528 845.367 65.376V65.264H846.503V65.376C846.503 67.024 844.871 68.16 842.663 68.16ZM842.631 60.88C840.583 60.88 839.655 61.936 839.575 63.664H845.543C845.543 63.584 845.543 63.504 845.543 63.424C845.543 61.76 844.487 60.88 842.631 60.88ZM851.113 68.16C848.681 68.16 847.273 67.184 847.273 65.36V65.328H848.409V65.424C848.409 66.752 849.193 67.216 851.129 67.216C852.905 67.216 853.513 66.8 853.513 65.888C853.513 65.056 853.017 64.784 851.705 64.576L849.593 64.272C848.153 64.08 847.241 63.52 847.241 62.208C847.241 60.816 848.569 59.936 850.745 59.936C853.017 59.936 854.489 60.896 854.489 62.752V62.784H853.353V62.704C853.353 61.52 852.729 60.88 850.713 60.88C849.049 60.88 848.361 61.28 848.361 62.224C848.361 63.04 848.777 63.328 850.089 63.52L852.025 63.792C853.721 64.032 854.633 64.608 854.633 65.888C854.633 67.376 853.161 68.16 851.113 68.16Z" fill="#BCBCBD"/>
<path d="M710.182 108.375C709.943 107.545 709.608 106.812 709.176 106.176C708.744 105.528 708.216 104.983 707.591 104.54C706.977 104.085 706.273 103.739 705.477 103.5C704.693 103.261 703.824 103.142 702.869 103.142C701.085 103.142 699.517 103.585 698.165 104.472C696.824 105.358 695.778 106.648 695.028 108.341C694.278 110.023 693.903 112.08 693.903 114.511C693.903 116.943 694.273 119.011 695.011 120.716C695.75 122.42 696.795 123.722 698.148 124.619C699.5 125.506 701.097 125.949 702.938 125.949C704.608 125.949 706.034 125.653 707.216 125.062C708.409 124.46 709.318 123.614 709.943 122.523C710.58 121.432 710.898 120.142 710.898 118.653L712.398 118.875H703.398V113.318H718.006V117.716C718.006 120.784 717.358 123.42 716.062 125.625C714.767 127.818 712.983 129.511 710.71 130.705C708.438 131.886 705.835 132.477 702.903 132.477C699.631 132.477 696.756 131.756 694.278 130.312C691.801 128.858 689.869 126.795 688.483 124.125C687.108 121.443 686.42 118.261 686.42 114.58C686.42 111.75 686.83 109.227 687.648 107.011C688.477 104.784 689.636 102.898 691.125 101.352C692.614 99.8068 694.347 98.6307 696.324 97.8239C698.301 97.017 700.443 96.6136 702.75 96.6136C704.727 96.6136 706.568 96.9034 708.273 97.483C709.977 98.0511 711.489 98.858 712.807 99.9034C714.136 100.949 715.222 102.193 716.062 103.636C716.903 105.068 717.443 106.648 717.682 108.375H710.182ZM730.879 132.494C729.209 132.494 727.72 132.205 726.413 131.625C725.107 131.034 724.072 130.165 723.311 129.017C722.561 127.858 722.186 126.415 722.186 124.688C722.186 123.233 722.453 122.011 722.987 121.023C723.521 120.034 724.249 119.239 725.169 118.636C726.089 118.034 727.135 117.58 728.305 117.273C729.487 116.966 730.726 116.75 732.021 116.625C733.544 116.466 734.771 116.318 735.703 116.182C736.635 116.034 737.311 115.818 737.732 115.534C738.152 115.25 738.362 114.83 738.362 114.273V114.17C738.362 113.091 738.021 112.256 737.339 111.665C736.669 111.074 735.714 110.778 734.476 110.778C733.169 110.778 732.129 111.068 731.357 111.648C730.584 112.216 730.072 112.932 729.822 113.795L723.107 113.25C723.447 111.659 724.118 110.284 725.118 109.125C726.118 107.955 727.408 107.057 728.987 106.432C730.578 105.795 732.419 105.477 734.51 105.477C735.964 105.477 737.357 105.648 738.686 105.989C740.027 106.33 741.214 106.858 742.249 107.574C743.294 108.29 744.118 109.21 744.72 110.335C745.322 111.449 745.624 112.784 745.624 114.341V132H738.737V128.369H738.533C738.112 129.188 737.55 129.909 736.845 130.534C736.141 131.148 735.294 131.631 734.305 131.983C733.317 132.324 732.175 132.494 730.879 132.494ZM732.959 127.483C734.027 127.483 734.97 127.273 735.788 126.852C736.607 126.42 737.249 125.841 737.714 125.114C738.18 124.386 738.413 123.562 738.413 122.642V119.864C738.186 120.011 737.874 120.148 737.476 120.273C737.089 120.386 736.652 120.494 736.163 120.597C735.675 120.687 735.186 120.773 734.697 120.852C734.209 120.92 733.766 120.983 733.368 121.04C732.516 121.165 731.771 121.364 731.135 121.636C730.499 121.909 730.004 122.278 729.652 122.744C729.3 123.199 729.124 123.767 729.124 124.449C729.124 125.438 729.482 126.193 730.197 126.716C730.925 127.227 731.845 127.483 732.959 127.483ZM773.041 113.284L766.393 113.693C766.28 113.125 766.036 112.614 765.661 112.159C765.286 111.693 764.791 111.324 764.178 111.051C763.575 110.767 762.854 110.625 762.013 110.625C760.888 110.625 759.939 110.864 759.166 111.341C758.393 111.807 758.007 112.432 758.007 113.216C758.007 113.841 758.257 114.369 758.757 114.801C759.257 115.233 760.115 115.58 761.331 115.841L766.07 116.795C768.615 117.318 770.513 118.159 771.763 119.318C773.013 120.477 773.638 122 773.638 123.886C773.638 125.602 773.132 127.108 772.121 128.403C771.121 129.699 769.746 130.71 767.996 131.438C766.257 132.153 764.251 132.511 761.979 132.511C758.513 132.511 755.751 131.79 753.695 130.347C751.649 128.892 750.45 126.915 750.098 124.415L757.24 124.04C757.456 125.097 757.979 125.903 758.808 126.46C759.638 127.006 760.7 127.278 761.996 127.278C763.268 127.278 764.291 127.034 765.064 126.545C765.848 126.045 766.246 125.403 766.257 124.619C766.246 123.96 765.967 123.42 765.422 123C764.876 122.568 764.036 122.239 762.899 122.011L758.365 121.108C755.808 120.597 753.905 119.71 752.655 118.449C751.416 117.187 750.797 115.58 750.797 113.625C750.797 111.943 751.251 110.494 752.161 109.278C753.081 108.062 754.371 107.125 756.03 106.466C757.7 105.807 759.655 105.477 761.893 105.477C765.2 105.477 767.803 106.176 769.7 107.574C771.609 108.972 772.723 110.875 773.041 113.284ZM799.994 113.284L793.347 113.693C793.233 113.125 792.989 112.614 792.614 112.159C792.239 111.693 791.744 111.324 791.131 111.051C790.528 110.767 789.807 110.625 788.966 110.625C787.841 110.625 786.892 110.864 786.119 111.341C785.347 111.807 784.96 112.432 784.96 113.216C784.96 113.841 785.21 114.369 785.71 114.801C786.21 115.233 787.068 115.58 788.284 115.841L793.023 116.795C795.568 117.318 797.466 118.159 798.716 119.318C799.966 120.477 800.591 122 800.591 123.886C800.591 125.602 800.085 127.108 799.074 128.403C798.074 129.699 796.699 130.71 794.949 131.438C793.21 132.153 791.205 132.511 788.932 132.511C785.466 132.511 782.705 131.79 780.648 130.347C778.602 128.892 777.403 126.915 777.051 124.415L784.193 124.04C784.409 125.097 784.932 125.903 785.761 126.46C786.591 127.006 787.653 127.278 788.949 127.278C790.222 127.278 791.244 127.034 792.017 126.545C792.801 126.045 793.199 125.403 793.21 124.619C793.199 123.96 792.92 123.42 792.375 123C791.83 122.568 790.989 122.239 789.852 122.011L785.318 121.108C782.761 120.597 780.858 119.71 779.608 118.449C778.369 117.187 777.75 115.58 777.75 113.625C777.75 111.943 778.205 110.494 779.114 109.278C780.034 108.062 781.324 107.125 782.983 106.466C784.653 105.807 786.608 105.477 788.847 105.477C792.153 105.477 794.756 106.176 796.653 107.574C798.563 108.972 799.676 110.875 799.994 113.284ZM812.425 97.0909V132H805.163V97.0909H812.425ZM830.173 132.511C827.48 132.511 825.162 131.966 823.219 130.875C821.287 129.773 819.798 128.216 818.753 126.205C817.707 124.182 817.185 121.79 817.185 119.028C817.185 116.335 817.707 113.972 818.753 111.938C819.798 109.903 821.27 108.318 823.168 107.182C825.077 106.045 827.315 105.477 829.884 105.477C831.611 105.477 833.219 105.756 834.707 106.312C836.207 106.858 837.514 107.682 838.628 108.784C839.753 109.886 840.628 111.273 841.253 112.943C841.878 114.602 842.19 116.545 842.19 118.773V120.767H820.082V116.267H835.355C835.355 115.222 835.128 114.295 834.673 113.489C834.219 112.682 833.588 112.051 832.781 111.597C831.986 111.131 831.06 110.898 830.003 110.898C828.901 110.898 827.923 111.153 827.071 111.665C826.23 112.165 825.571 112.841 825.094 113.693C824.616 114.534 824.372 115.472 824.361 116.506V120.784C824.361 122.08 824.599 123.199 825.077 124.142C825.565 125.085 826.253 125.812 827.139 126.324C828.026 126.835 829.077 127.091 830.293 127.091C831.099 127.091 831.838 126.977 832.509 126.75C833.179 126.523 833.753 126.182 834.23 125.727C834.707 125.273 835.071 124.716 835.321 124.057L842.037 124.5C841.696 126.114 840.997 127.523 839.94 128.727C838.895 129.92 837.543 130.852 835.884 131.523C834.236 132.182 832.332 132.511 830.173 132.511ZM868.713 113.284L862.065 113.693C861.952 113.125 861.707 112.614 861.332 112.159C860.957 111.693 860.463 111.324 859.849 111.051C859.247 110.767 858.526 110.625 857.685 110.625C856.56 110.625 855.611 110.864 854.838 111.341C854.065 111.807 853.679 112.432 853.679 113.216C853.679 113.841 853.929 114.369 854.429 114.801C854.929 115.233 855.787 115.58 857.003 115.841L861.741 116.795C864.287 117.318 866.185 118.159 867.435 119.318C868.685 120.477 869.31 122 869.31 123.886C869.31 125.602 868.804 127.108 867.793 128.403C866.793 129.699 865.418 130.71 863.668 131.438C861.929 132.153 859.923 132.511 857.651 132.511C854.185 132.511 851.423 131.79 849.366 130.347C847.321 128.892 846.122 126.915 845.77 124.415L852.912 124.04C853.128 125.097 853.651 125.903 854.48 126.46C855.31 127.006 856.372 127.278 857.668 127.278C858.94 127.278 859.963 127.034 860.736 126.545C861.52 126.045 861.918 125.403 861.929 124.619C861.918 123.96 861.639 123.42 861.094 123C860.548 122.568 859.707 122.239 858.571 122.011L854.037 121.108C851.48 120.597 849.577 119.71 848.327 118.449C847.088 117.187 846.469 115.58 846.469 113.625C846.469 111.943 846.923 110.494 847.832 109.278C848.753 108.062 850.043 107.125 851.702 106.466C853.372 105.807 855.327 105.477 857.565 105.477C860.872 105.477 863.474 106.176 865.372 107.574C867.281 108.972 868.395 110.875 868.713 113.284ZM895.666 113.284L889.018 113.693C888.905 113.125 888.661 112.614 888.286 112.159C887.911 111.693 887.416 111.324 886.803 111.051C886.2 110.767 885.479 110.625 884.638 110.625C883.513 110.625 882.564 110.864 881.791 111.341C881.018 111.807 880.632 112.432 880.632 113.216C880.632 113.841 880.882 114.369 881.382 114.801C881.882 115.233 882.74 115.58 883.956 115.841L888.695 116.795C891.24 117.318 893.138 118.159 894.388 119.318C895.638 120.477 896.263 122 896.263 123.886C896.263 125.602 895.757 127.108 894.746 128.403C893.746 129.699 892.371 130.71 890.621 131.438C888.882 132.153 886.876 132.511 884.604 132.511C881.138 132.511 878.376 131.79 876.32 130.347C874.274 128.892 873.075 126.915 872.723 124.415L879.865 124.04C880.081 125.097 880.604 125.903 881.433 126.46C882.263 127.006 883.325 127.278 884.621 127.278C885.893 127.278 886.916 127.034 887.689 126.545C888.473 126.045 888.871 125.403 888.882 124.619C888.871 123.96 888.592 123.42 888.047 123C887.501 122.568 886.661 122.239 885.524 122.011L880.99 121.108C878.433 120.597 876.53 119.71 875.28 118.449C874.041 117.187 873.422 115.58 873.422 113.625C873.422 111.943 873.876 110.494 874.786 109.278C875.706 108.062 876.996 107.125 878.655 106.466C880.325 105.807 882.28 105.477 884.518 105.477C887.825 105.477 890.428 106.176 892.325 107.574C894.234 108.972 895.348 110.875 895.666 113.284Z" fill="url(#paint4_linear_141_3415)"/>
<path d="M975.204 55H973.74L979.425 42.4296H981.282L986.986 55H985.485L983.797 51.3039H976.892L975.204 55ZM979.594 45.3377L977.436 50.1032H983.252L981.076 45.3377L980.382 43.7054H980.269L979.594 45.3377ZM991.636 55.1876C988.671 55.1876 987.02 53.1801 987.02 50.3658C987.02 47.5515 988.671 45.544 991.523 45.544C993.718 45.544 995.088 46.726 995.501 48.3208H995.594V42.4296H996.926V55H995.707V52.2608H995.632C995.182 54.1182 993.681 55.1876 991.636 55.1876ZM988.371 50.3658C988.371 53.0488 989.797 53.9681 991.973 53.9681C994.15 53.9681 995.594 52.7111 995.594 50.5159V50.3471C995.594 48.0581 994.225 46.7823 991.936 46.7823C989.816 46.7823 988.371 47.6829 988.371 50.3658ZM1003.72 55H1002.09L997.663 45.7317H999.108L1002.86 53.6867H1002.97L1006.71 45.7317H1008.15L1003.72 55ZM1011.47 55.1876C1009.65 55.1876 1008.42 54.3246 1008.42 52.8236C1008.42 51.3039 1009.67 50.6473 1011.4 50.4596L1015.81 49.9718V49.2589C1015.81 47.4577 1015.02 46.7448 1012.99 46.7448C1011 46.7448 1009.95 47.4577 1009.95 49.09V49.1651H1008.62V49.09C1008.62 47.1388 1010.24 45.544 1013.09 45.544C1015.9 45.544 1017.1 47.1576 1017.1 49.2026V55H1015.9V52.5047H1015.81C1015.26 54.212 1013.63 55.1876 1011.47 55.1876ZM1009.75 52.7298C1009.75 53.6679 1010.37 54.1557 1011.77 54.1557C1014.03 54.1557 1015.81 53.1613 1015.81 50.9287V50.8536L1011.81 51.3039C1010.42 51.4353 1009.75 51.773 1009.75 52.7298ZM1020.06 55H1018.73V45.7317H1019.93V48.6397H1020.02C1020.34 47.0637 1021.66 45.544 1023.96 45.544C1026.57 45.544 1027.87 47.4015 1027.87 49.5966V55H1026.53V49.7842C1026.53 47.8705 1025.61 46.7636 1023.49 46.7636C1021.24 46.7636 1020.06 48.1332 1020.06 50.5159V55ZM1033.9 55.1876C1030.93 55.1876 1029 53.1801 1029 50.3658C1029 47.5515 1030.93 45.544 1033.9 45.544C1036.49 45.544 1038.51 47.0825 1038.51 49.3152V49.4653H1037.2V49.3527C1037.2 47.7016 1036 46.7636 1033.88 46.7636C1031.4 46.7636 1030.33 48.0956 1030.33 50.3658C1030.33 52.636 1031.4 53.9681 1033.88 53.9681C1036 53.9681 1037.2 53.03 1037.2 51.379V51.2664H1038.51V51.4165C1038.51 53.6491 1036.49 55.1876 1033.9 55.1876ZM1044.15 55.1876C1041.16 55.1876 1039.27 53.3114 1039.27 50.3658C1039.27 47.5515 1041.14 45.544 1044.13 45.544C1046.85 45.544 1048.78 47.12 1048.78 49.878C1048.78 50.2157 1048.74 50.4972 1048.69 50.7411H1040.52C1040.6 52.8236 1041.67 54.0807 1044.13 54.0807C1046.3 54.0807 1047.32 53.2739 1047.32 51.9231V51.7917H1048.65V51.9231C1048.65 53.8555 1046.73 55.1876 1044.15 55.1876ZM1044.11 46.651C1041.71 46.651 1040.62 47.8893 1040.52 49.9155H1047.52C1047.52 49.8217 1047.52 49.7279 1047.52 49.6341C1047.52 47.6829 1046.28 46.651 1044.11 46.651ZM1053.98 55.1876C1051.02 55.1876 1049.36 53.1801 1049.36 50.3658C1049.36 47.5515 1051.02 45.544 1053.87 45.544C1056.06 45.544 1057.43 46.726 1057.84 48.3208H1057.94V42.4296H1059.27V55H1058.05V52.2608H1057.98C1057.53 54.1182 1056.02 55.1876 1053.98 55.1876ZM1050.72 50.3658C1050.72 53.0488 1052.14 53.9681 1054.32 53.9681C1056.49 53.9681 1057.94 52.7111 1057.94 50.5159V50.3471C1057.94 48.0581 1056.57 46.7823 1054.28 46.7823C1052.16 46.7823 1050.72 47.6829 1050.72 50.3658ZM1067.14 55H1065.68L1071.36 42.4296H1073.22L1078.92 55H1077.42L1075.73 51.3039H1068.83L1067.14 55ZM1071.53 45.3377L1069.37 50.1032H1075.19L1073.01 45.3377L1072.32 43.7054H1072.21L1071.53 45.3377ZM1080.91 55H1079.58V42.4296H1080.91V55ZM1091.1 55.1876C1087.51 55.1876 1085 52.636 1085 48.7148C1085 44.7936 1087.61 42.2419 1091.36 42.2419C1094.62 42.2419 1097.06 44.0243 1097.06 46.8198V46.9887H1095.62V46.8198C1095.62 44.7373 1094.12 43.5365 1091.34 43.5365C1088.17 43.5365 1086.41 45.3001 1086.41 48.7148C1086.41 52.1294 1088.15 53.8931 1091.28 53.8931C1094.27 53.8931 1095.73 52.7673 1095.73 50.3283V49.8593H1090.74V48.8086H1097.08V55H1095.88V52.2608H1095.79C1095.15 54.2871 1093.33 55.1876 1091.1 55.1876ZM1102.4 55.1876C1099.76 55.1876 1098.46 53.349 1098.46 51.1538V45.7317H1099.79V50.9474C1099.79 52.8799 1100.73 53.9869 1102.87 53.9869C1105.14 53.9869 1106.32 52.6172 1106.32 50.2345V45.7317H1107.66V55H1106.45V52.1107H1106.36C1106.04 53.6867 1104.71 55.1876 1102.4 55.1876ZM1110.67 44.5497H1109.33V42.4296H1110.67V44.5497ZM1110.67 55H1109.33V45.7317H1110.67V55ZM1116.34 55.1876C1113.38 55.1876 1111.72 53.1801 1111.72 50.3658C1111.72 47.5515 1113.38 45.544 1116.23 45.544C1118.42 45.544 1119.79 46.726 1120.2 48.3208H1120.3V42.4296H1121.63V55H1120.41V52.2608H1120.34C1119.89 54.1182 1118.38 55.1876 1116.34 55.1876ZM1113.08 50.3658C1113.08 53.0488 1114.5 53.9681 1116.68 53.9681C1118.85 53.9681 1120.3 52.7111 1120.3 50.5159V50.3471C1120.3 48.0581 1118.93 46.7823 1116.64 46.7823C1114.52 46.7823 1113.08 47.6829 1113.08 50.3658ZM1127.71 55.1876C1124.73 55.1876 1122.84 53.3114 1122.84 50.3658C1122.84 47.5515 1124.71 45.544 1127.7 45.544C1130.42 45.544 1132.35 47.12 1132.35 49.878C1132.35 50.2157 1132.31 50.4972 1132.25 50.7411H1124.09C1124.17 52.8236 1125.24 54.0807 1127.7 54.0807C1129.87 54.0807 1130.88 53.2739 1130.88 51.9231V51.7917H1132.22V51.9231C1132.22 53.8555 1130.3 55.1876 1127.71 55.1876ZM1127.68 46.651C1125.28 46.651 1124.19 47.8893 1124.09 49.9155H1131.09C1131.09 49.8217 1131.09 49.7279 1131.09 49.6341C1131.09 47.6829 1129.85 46.651 1127.68 46.651ZM1137.77 55H1136.43V42.4296H1145.85V43.6491H1137.77V48.4521H1145.57V49.6529H1137.77V55ZM1151.61 55.1876C1148.59 55.1876 1146.58 53.1801 1146.58 50.3658C1146.58 47.5515 1148.59 45.544 1151.61 45.544C1154.65 45.544 1156.65 47.5515 1156.65 50.3658C1156.65 53.1801 1154.65 55.1876 1151.61 55.1876ZM1151.61 53.9869C1154.16 53.9869 1155.34 52.6172 1155.34 50.3658C1155.34 48.1332 1154.16 46.7448 1151.61 46.7448C1149.05 46.7448 1147.89 48.1332 1147.89 50.3658C1147.89 52.6172 1149.05 53.9869 1151.61 53.9869ZM1159.19 55H1157.86V45.7317H1159.06V48.2645H1159.16C1159.44 46.7823 1160.49 45.544 1162.42 45.544C1164.56 45.544 1165.5 47.12 1165.5 48.8461V49.7654H1164.17V49.0525C1164.17 47.4765 1163.51 46.7073 1161.9 46.7073C1160.02 46.7073 1159.19 47.8893 1159.19 49.9718V55ZM1007.28 74.1876C1003.58 74.1876 1001.85 72.424 1001.85 70.0225V69.9099H1003.2V70.1538C1003.2 71.955 1004.33 72.9306 1007.28 72.9306C1009.79 72.9306 1010.93 72.2364 1010.93 70.8105C1010.93 69.4033 1010.09 68.8968 1008.25 68.5215L1005.59 68.015C1003.54 67.621 1001.91 66.7579 1001.91 64.6754C1001.91 62.968 1003.37 61.2419 1006.98 61.2419C1010.52 61.2419 1012.1 63.1181 1012.1 65.4071V65.5196H1010.75V65.2945C1010.75 63.4746 1009.62 62.499 1006.88 62.499C1004.39 62.499 1003.26 63.2119 1003.26 64.5816C1003.26 66.0075 1004.09 66.439 1005.94 66.833L1008.59 67.3583C1010.84 67.7898 1012.28 68.7467 1012.28 70.6979C1012.28 72.4991 1010.77 74.1876 1007.28 74.1876ZM1014.78 74H1013.45V64.7317H1014.65V67.5272H1014.73C1014.99 65.9699 1016.06 64.544 1018.37 64.544C1020.43 64.544 1021.59 65.8198 1021.89 67.621H1021.99C1022.25 66.0262 1023.36 64.544 1025.68 64.544C1028.1 64.544 1029.36 66.2514 1029.36 68.5966V74H1028.03V68.7842C1028.03 66.7204 1027.15 65.7636 1025.2 65.7636C1022.96 65.7636 1022.06 67.0581 1022.06 69.5159V74H1020.73V68.7842C1020.73 66.7204 1019.87 65.7636 1017.92 65.7636C1015.66 65.7636 1014.78 67.0581 1014.78 69.5159V74ZM1033.54 74.1876C1031.72 74.1876 1030.48 73.3246 1030.48 71.8236C1030.48 70.3039 1031.74 69.6473 1033.47 69.4596L1037.88 68.9718V68.2589C1037.88 66.4577 1037.09 65.7448 1035.06 65.7448C1033.07 65.7448 1032.02 66.4577 1032.02 68.09V68.1651H1030.69V68.09C1030.69 66.1388 1032.3 64.544 1035.16 64.544C1037.97 64.544 1039.17 66.1576 1039.17 68.2026V74H1037.97V71.5047H1037.88C1037.33 73.212 1035.7 74.1876 1033.54 74.1876ZM1031.82 71.7298C1031.82 72.6679 1032.44 73.1557 1033.84 73.1557C1036.09 73.1557 1037.88 72.1613 1037.88 69.9287V69.8536L1033.88 70.3039C1032.49 70.4353 1031.82 70.773 1031.82 71.7298ZM1042.13 74H1040.8V64.7317H1042V67.2645H1042.09C1042.37 65.7823 1043.42 64.544 1045.36 64.544C1047.5 64.544 1048.43 66.12 1048.43 67.8461V68.7654H1047.1V68.0525C1047.1 66.4765 1046.44 65.7073 1044.83 65.7073C1042.96 65.7073 1042.13 66.8893 1042.13 68.9718V74ZM1055.1 74H1053.09C1051.25 74 1050.07 73.2308 1050.07 71.0544V65.8761H1048.42V64.7317H1050.07V62.5178H1051.42V64.7317H1055.1V65.8761H1051.42V71.1294C1051.42 72.424 1052.06 72.7805 1053.41 72.7805H1055.1V74ZM1060.41 74.1876C1057.42 74.1876 1055.53 72.3114 1055.53 69.3658C1055.53 66.5515 1057.4 64.544 1060.39 64.544C1063.11 64.544 1065.04 66.12 1065.04 68.878C1065.04 69.2157 1065 69.4972 1064.95 69.7411H1056.78C1056.86 71.8236 1057.93 73.0807 1060.39 73.0807C1062.56 73.0807 1063.58 72.2739 1063.58 70.9231V70.7917H1064.91V70.9231C1064.91 72.8555 1063 74.1876 1060.41 74.1876ZM1060.37 65.651C1057.97 65.651 1056.88 66.8893 1056.78 68.9155H1063.78C1063.78 68.8217 1063.78 68.7279 1063.78 68.6341C1063.78 66.6829 1062.54 65.651 1060.37 65.651ZM1067.58 74H1066.24V64.7317H1067.44V67.2645H1067.54C1067.82 65.7823 1068.87 64.544 1070.8 64.544C1072.94 64.544 1073.88 66.12 1073.88 67.8461V68.7654H1072.55V68.0525C1072.55 66.4765 1071.89 65.7073 1070.28 65.7073C1068.4 65.7073 1067.58 66.8893 1067.58 68.9718V74ZM1083.33 74H1082V62.6491H1076.82V61.4296H1088.49V62.6491H1083.33V74ZM1090.59 74H1089.25V64.7317H1090.45V67.2645H1090.55C1090.83 65.7823 1091.88 64.544 1093.81 64.544C1095.95 64.544 1096.89 66.12 1096.89 67.8461V68.7654H1095.56V68.0525C1095.56 66.4765 1094.9 65.7073 1093.29 65.7073C1091.41 65.7073 1090.59 66.8893 1090.59 68.9718V74ZM1100.44 74.1876C1098.62 74.1876 1097.38 73.3246 1097.38 71.8236C1097.38 70.3039 1098.64 69.6473 1100.37 69.4596L1104.77 68.9718V68.2589C1104.77 66.4577 1103.99 65.7448 1101.96 65.7448C1099.97 65.7448 1098.92 66.4577 1098.92 68.09V68.1651H1097.59V68.09C1097.59 66.1388 1099.2 64.544 1102.05 64.544C1104.87 64.544 1106.07 66.1576 1106.07 68.2026V74H1104.87V71.5047H1104.77C1104.23 73.212 1102.6 74.1876 1100.44 74.1876ZM1098.71 71.7298C1098.71 72.6679 1099.33 73.1557 1100.74 73.1557C1102.99 73.1557 1104.77 72.1613 1104.77 69.9287V69.8536L1100.78 70.3039C1099.39 70.4353 1098.71 70.773 1098.71 71.7298ZM1111.69 74.1876C1108.73 74.1876 1107.08 72.1801 1107.08 69.3658C1107.08 66.5515 1108.73 64.544 1111.58 64.544C1113.77 64.544 1115.14 65.726 1115.56 67.3208H1115.65V61.4296H1116.98V74H1115.76V71.2608H1115.69C1115.24 73.1182 1113.74 74.1876 1111.69 74.1876ZM1108.43 69.3658C1108.43 72.0488 1109.85 72.9681 1112.03 72.9681C1114.21 72.9681 1115.65 71.7111 1115.65 69.5159V69.3471C1115.65 67.0581 1114.28 65.7823 1111.99 65.7823C1109.87 65.7823 1108.43 66.6829 1108.43 69.3658ZM1123.07 74.1876C1120.08 74.1876 1118.19 72.3114 1118.19 69.3658C1118.19 66.5515 1120.06 64.544 1123.05 64.544C1125.77 64.544 1127.7 66.12 1127.7 68.878C1127.7 69.2157 1127.66 69.4972 1127.61 69.7411H1119.45C1119.52 71.8236 1120.59 73.0807 1123.05 73.0807C1125.22 73.0807 1126.24 72.2739 1126.24 70.9231V70.7917H1127.57V70.9231C1127.57 72.8555 1125.66 74.1876 1123.07 74.1876ZM1123.03 65.651C1120.63 65.651 1119.54 66.8893 1119.45 68.9155H1126.44C1126.44 68.8217 1126.44 68.7279 1126.44 68.6341C1126.44 66.6829 1125.21 65.651 1123.03 65.651ZM1132.98 74.1876C1130.12 74.1876 1128.47 73.0431 1128.47 70.9043V70.8668H1129.81V70.9793C1129.81 72.5366 1130.72 73.0807 1133 73.0807C1135.08 73.0807 1135.79 72.5929 1135.79 71.5234C1135.79 70.5478 1135.21 70.2289 1133.67 69.985L1131.19 69.6285C1129.51 69.4033 1128.44 68.7467 1128.44 67.2082C1128.44 65.5759 1129.99 64.544 1132.54 64.544C1135.21 64.544 1136.94 65.6697 1136.94 67.8461V67.8836H1135.6V67.7898C1135.6 66.4015 1134.87 65.651 1132.51 65.651C1130.56 65.651 1129.75 66.12 1129.75 67.227C1129.75 68.1838 1130.24 68.5215 1131.78 68.7467L1134.05 69.0656C1136.03 69.3471 1137.1 70.0225 1137.1 71.5234C1137.1 73.2683 1135.38 74.1876 1132.98 74.1876Z" fill="#BCBCBD"/>
<path d="M980.051 132H972.142L984.193 97.0909H993.705L1005.74 132H997.83L989.085 105.068H988.812L980.051 132ZM979.557 118.278H998.239V124.04H979.557V118.278ZM1017.32 97.0909V132H1009.94V97.0909H1017.32ZM1057.65 108.375C1057.41 107.545 1057.08 106.812 1056.64 106.176C1056.21 105.528 1055.68 104.983 1055.06 104.54C1054.45 104.085 1053.74 103.739 1052.95 103.5C1052.16 103.261 1051.29 103.142 1050.34 103.142C1048.55 103.142 1046.99 103.585 1045.63 104.472C1044.29 105.358 1043.25 106.648 1042.5 108.341C1041.75 110.023 1041.37 112.08 1041.37 114.511C1041.37 116.943 1041.74 119.011 1042.48 120.716C1043.22 122.42 1044.26 123.722 1045.62 124.619C1046.97 125.506 1048.57 125.949 1050.41 125.949C1052.08 125.949 1053.5 125.653 1054.68 125.062C1055.88 124.46 1056.79 123.614 1057.41 122.523C1058.05 121.432 1058.37 120.142 1058.37 118.653L1059.87 118.875H1050.87V113.318H1065.47V117.716C1065.47 120.784 1064.83 123.42 1063.53 125.625C1062.24 127.818 1060.45 129.511 1058.18 130.705C1055.91 131.886 1053.3 132.477 1050.37 132.477C1047.1 132.477 1044.22 131.756 1041.75 130.312C1039.27 128.858 1037.34 126.795 1035.95 124.125C1034.58 121.443 1033.89 118.261 1033.89 114.58C1033.89 111.75 1034.3 109.227 1035.12 107.011C1035.95 104.784 1037.11 102.898 1038.59 101.352C1040.08 99.8068 1041.82 98.6307 1043.79 97.8239C1045.77 97.017 1047.91 96.6136 1050.22 96.6136C1052.2 96.6136 1054.04 96.9034 1055.74 97.483C1057.45 98.0511 1058.96 98.858 1060.28 99.9034C1061.61 100.949 1062.69 102.193 1063.53 103.636C1064.37 105.068 1064.91 106.648 1065.15 108.375H1057.65ZM1087.67 120.852V105.818H1094.93V132H1087.96V127.244H1087.69C1087.1 128.778 1086.12 130.011 1084.74 130.943C1083.38 131.875 1081.71 132.341 1079.75 132.341C1078 132.341 1076.46 131.943 1075.13 131.148C1073.8 130.352 1072.76 129.222 1072.01 127.756C1071.27 126.29 1070.89 124.534 1070.88 122.489V105.818H1078.14V121.193C1078.15 122.739 1078.57 123.96 1079.39 124.858C1080.21 125.756 1081.3 126.205 1082.68 126.205C1083.55 126.205 1084.37 126.006 1085.13 125.608C1085.89 125.199 1086.51 124.597 1086.97 123.801C1087.45 123.006 1087.68 122.023 1087.67 120.852ZM1100.74 132V105.818H1108V132H1100.74ZM1104.39 102.443C1103.31 102.443 1102.38 102.085 1101.61 101.369C1100.85 100.642 1100.47 99.7727 1100.47 98.7614C1100.47 97.7614 1100.85 96.9034 1101.61 96.1875C1102.38 95.4602 1103.31 95.0966 1104.39 95.0966C1105.47 95.0966 1106.39 95.4602 1107.15 96.1875C1107.92 96.9034 1108.31 97.7614 1108.31 98.7614C1108.31 99.7727 1107.92 100.642 1107.15 101.369C1106.39 102.085 1105.47 102.443 1104.39 102.443ZM1123.47 132.426C1121.48 132.426 1119.68 131.915 1118.06 130.892C1116.46 129.858 1115.19 128.341 1114.25 126.341C1113.31 124.33 1112.85 121.864 1112.85 118.943C1112.85 115.943 1113.33 113.449 1114.3 111.46C1115.26 109.46 1116.55 107.966 1118.15 106.977C1119.76 105.977 1121.53 105.477 1123.45 105.477C1124.92 105.477 1126.14 105.727 1127.12 106.227C1128.1 106.716 1128.9 107.33 1129.5 108.068C1130.12 108.795 1130.58 109.511 1130.9 110.216H1131.12V97.0909H1138.37V132H1131.21V127.807H1130.9C1130.56 128.534 1130.08 129.256 1129.45 129.972C1128.84 130.676 1128.04 131.261 1127.05 131.727C1126.07 132.193 1124.88 132.426 1123.47 132.426ZM1125.77 126.648C1126.94 126.648 1127.93 126.33 1128.73 125.693C1129.55 125.045 1130.18 124.142 1130.61 122.983C1131.05 121.824 1131.27 120.466 1131.27 118.909C1131.27 117.352 1131.06 116 1130.63 114.852C1130.19 113.705 1129.57 112.818 1128.75 112.193C1127.93 111.568 1126.94 111.256 1125.77 111.256C1124.58 111.256 1123.57 111.58 1122.75 112.227C1121.93 112.875 1121.31 113.773 1120.89 114.92C1120.47 116.068 1120.26 117.398 1120.26 118.909C1120.26 120.432 1120.47 121.778 1120.89 122.949C1121.33 124.108 1121.94 125.017 1122.75 125.676C1123.57 126.324 1124.58 126.648 1125.77 126.648ZM1156.27 132.511C1153.57 132.511 1151.26 131.966 1149.31 130.875C1147.38 129.773 1145.89 128.216 1144.85 126.205C1143.8 124.182 1143.28 121.79 1143.28 119.028C1143.28 116.335 1143.8 113.972 1144.85 111.938C1145.89 109.903 1147.36 108.318 1149.26 107.182C1151.17 106.045 1153.41 105.477 1155.98 105.477C1157.7 105.477 1159.31 105.756 1160.8 106.312C1162.3 106.858 1163.61 107.682 1164.72 108.784C1165.85 109.886 1166.72 111.273 1167.35 112.943C1167.97 114.602 1168.28 116.545 1168.28 118.773V120.767H1146.18V116.267H1161.45C1161.45 115.222 1161.22 114.295 1160.77 113.489C1160.31 112.682 1159.68 112.051 1158.88 111.597C1158.08 111.131 1157.15 110.898 1156.1 110.898C1154.99 110.898 1154.02 111.153 1153.16 111.665C1152.32 112.165 1151.66 112.841 1151.19 113.693C1150.71 114.534 1150.47 115.472 1150.45 116.506V120.784C1150.45 122.08 1150.69 123.199 1151.17 124.142C1151.66 125.085 1152.35 125.812 1153.23 126.324C1154.12 126.835 1155.17 127.091 1156.39 127.091C1157.19 127.091 1157.93 126.977 1158.6 126.75C1159.27 126.523 1159.85 126.182 1160.32 125.727C1160.8 125.273 1161.16 124.716 1161.41 124.057L1168.13 124.5C1167.79 126.114 1167.09 127.523 1166.03 128.727C1164.99 129.92 1163.64 130.852 1161.98 131.523C1160.33 132.182 1158.43 132.511 1156.27 132.511Z" fill="url(#paint5_linear_141_3415)"/>
<defs>
<filter id="filter0_d_141_3415" x="-3.89256" y="0" width="1221.89" height="427.908" filterUnits="userSpaceOnUse" color-interpolation-filters="sRGB">
<feFlood flood-opacity="0" result="BackgroundImageFix"/>
<feColorMatrix in="SourceAlpha" type="matrix" values="0 0 0 0 0 0 0 0 0 0 0 0 0 0 0 0 0 0 127 0" result="hardAlpha"/>
<feOffset dx="-158.35" dy="182.365"/>
<feGaussianBlur stdDeviation="33.7713"/>
<feColorMatrix type="matrix" values="0 0 0 0 0 0 0 0 0 0 0 0 0 0 0 0 0 0 0.01 0"/>
<feBlend mode="normal" in2="BackgroundImageFix" result="effect1_dropShadow_141_3415"/>
<feBlend mode="normal" in="SourceGraphic" in2="effect1_dropShadow_141_3415" result="shape"/>
</filter>
<linearGradient id="paint0_linear_141_3415" x1="720" y1="0" x2="719.971" y2="203.494" gradientUnits="userSpaceOnUse">
<stop stop-color="#868687"/>
<stop offset="0.724038" stop-color="#F0F0F2" stop-opacity="0.275962"/>
<stop offset="1" stop-color="#4E4E52" stop-opacity="0"/>
</linearGradient>
<linearGradient id="paint1_linear_141_3415" x1="323.974" y1="95.0105" x2="339.301" y2="145.392" gradientUnits="userSpaceOnUse">
<stop stop-color="white"/>
</linearGradient>
<linearGradient id="paint2_linear_141_3415" x1="552.5" y1="43.2667" x2="552.5" y2="70.2" gradientUnits="userSpaceOnUse">
<stop stop-color="white"/>
<stop offset="1" stop-color="white" stop-opacity="0"/>
</linearGradient>
<linearGradient id="paint3_linear_141_3415" x1="531.117" y1="95.0105" x2="544.999" y2="146.297" gradientUnits="userSpaceOnUse">
<stop stop-color="white"/>
</linearGradient>
<linearGradient id="paint4_linear_141_3415" x1="756.628" y1="95.0105" x2="765.06" y2="148.73" gradientUnits="userSpaceOnUse">
<stop stop-color="white"/>
</linearGradient>
<linearGradient id="paint5_linear_141_3415" x1="1038.32" y1="95.0105" x2="1047.38" y2="148.52" gradientUnits="userSpaceOnUse">
<stop stop-color="white"/>
</linearGradient>
</defs>
</svg>
